<svg width="320" height="200" viewBox="0 0 320 200" fill="none" xmlns="http://www.w3.org/2000/svg">
<g clip-path="url(#clip0_2129_7651)">
<path d="M101.619 108.332H98.0078V108.202C99.2551 107.99 99.5894 107.607 100.967 105.487L110.18 91.2363H110.571V103.196C110.571 104.827 110.595 106.604 110.881 107.305C111.011 107.647 111.288 107.908 111.631 108.031C111.867 108.112 112.112 108.177 112.356 108.21V108.34H106.984V108.202C107.196 108.161 107.408 108.112 107.62 108.047C108.027 107.941 108.345 107.639 108.476 107.248C108.761 106.416 108.81 104.818 108.81 103.196V93.9919L104.049 101.345L107.995 101.451V101.582L103.837 101.688L101.375 105.511C100.674 106.596 100.47 107.036 100.47 107.403C100.47 108.047 101.065 108.177 101.611 108.234L101.619 108.332Z" fill="black"/>
<path d="M117.298 103.229C117.298 104.859 117.355 106.531 117.608 107.362C117.771 107.737 118.097 108.022 118.488 108.137C118.741 108.202 119.002 108.243 119.271 108.243V108.349H113.719V108.243C113.939 108.243 114.159 108.21 114.371 108.137C114.746 108.014 115.048 107.729 115.203 107.362C115.464 106.563 115.537 104.859 115.537 103.229V96.454C115.537 94.799 115.488 93.1767 115.203 92.3451C115.032 91.9864 114.722 91.7011 114.347 91.5706C114.143 91.5054 113.931 91.4728 113.711 91.4647V91.3668H120.2C122.923 91.3668 125.573 92.606 125.573 95.5002C125.573 97.8236 123.812 99.3481 121.366 99.609V99.6906C122.075 99.7476 122.752 99.9922 123.339 100.392C124.146 100.962 124.48 102.071 124.847 103.905C125.32 106.229 125.834 107.232 126.413 107.656C126.804 107.941 127.252 108.137 127.733 108.218V108.349H124.44C123.804 107.704 123.347 106.824 123.086 104.884C122.874 103.31 122.695 101.476 121.945 100.571C121.399 99.8699 120.437 99.7395 119.247 99.7395H118.024V99.609L119.287 99.503C121.627 99.3237 122.165 99.1688 122.842 98.3454C123.364 97.7503 123.592 96.9758 123.592 95.5572C123.592 93.2338 122.605 91.7092 119.793 91.7092H118.937C118.342 91.7092 117.795 91.7908 117.534 92.2228C117.274 92.6142 117.274 93.2582 117.274 94.261L117.298 103.229Z" fill="black"/>
<path d="M142.218 95.3697C141.982 94.8561 141.256 93.2663 139.96 92.4755C139.161 91.9456 138.215 91.6684 137.261 91.701H135.68V103.196C135.68 104.827 135.737 106.604 136.014 107.305C136.161 107.688 136.495 107.982 136.894 108.079C137.106 108.137 137.318 108.177 137.53 108.21V108.34H132.044V108.202C132.256 108.169 132.468 108.112 132.68 108.047C133.063 107.933 133.373 107.656 133.536 107.297C133.87 106.465 133.927 104.818 133.927 103.188V91.701H132.313C131.318 91.6766 130.34 91.9782 129.533 92.5489C128.367 93.3479 127.633 94.799 127.38 95.3615H127.25L128.171 91.3586H141.411L142.348 95.3615L142.218 95.3697Z" fill="black"/>
<path d="M150.265 108.691C146.083 108.691 142.684 105.438 142.684 99.8373C142.684 94.3914 146.238 91.0326 150.339 91.0326C152.728 91.0326 154.676 92.0109 155.662 92.8914H155.744L156.078 91.9864H156.315V97.416H156.135C155.768 95.916 155.41 94.9621 154.888 94.0816C153.844 92.3452 152.426 91.3913 150.314 91.3913C149.067 91.3913 147.591 91.8152 146.417 93.4539C145.455 94.7991 144.681 96.9106 144.681 99.8373C144.681 103.791 146.189 105.903 147.485 106.938C148.578 107.794 149.801 107.949 150.779 107.949C152.776 107.949 155.296 107.126 156.388 102.658L156.649 102.74C155.923 106.392 153.461 108.691 150.265 108.691Z" fill="black"/>
<path d="M171.731 91.5951C171.315 91.7092 170.965 92.0027 170.793 92.394C170.614 92.8587 170.484 93.4457 170.484 94.7175V102.65C170.484 104.093 170.247 105.365 169.701 106.367C169.008 107.688 167.214 108.691 165.111 108.691C162.413 108.691 160.415 107.737 159.739 105.723C159.315 104.484 159.372 103.09 159.372 102.104V96.4785C159.372 94.3588 159.396 93.1441 159.062 92.3696C158.907 92.0272 158.613 91.7663 158.255 91.644C158.035 91.5625 157.806 91.5136 157.578 91.4891V91.3668H162.926V91.4891C162.682 91.5136 162.437 91.5625 162.201 91.644C161.834 91.7418 161.532 92.0109 161.394 92.3696C161.108 93.0707 161.133 94.6441 161.133 96.4785V102.911C161.133 103.612 161.108 104.77 161.369 105.642C161.834 107.248 162.975 108.226 165.111 108.226C167.166 108.226 168.641 107.501 169.334 106.294C169.799 105.495 170.117 104.435 170.117 102.756V94.7175C170.117 93.4539 169.962 92.8261 169.75 92.394C169.611 92.0353 169.31 91.7663 168.943 91.644C168.641 91.5543 168.331 91.4973 168.022 91.4647V91.3668H172.359V91.4728C172.147 91.481 171.935 91.5299 171.731 91.5951Z" fill="black"/>
<path d="M177.08 103.229C177.08 104.859 177.129 106.531 177.389 107.362C177.552 107.737 177.879 108.022 178.27 108.137C178.523 108.202 178.784 108.243 179.053 108.243V108.349H173.501V108.243C173.721 108.243 173.941 108.21 174.145 108.137C174.52 108.014 174.821 107.729 174.976 107.362C175.237 106.563 175.311 104.859 175.311 103.229V96.454C175.311 94.799 175.253 93.1767 174.976 92.3451C174.805 91.9864 174.495 91.7011 174.12 91.5706C173.916 91.5054 173.704 91.4728 173.484 91.4647V91.3668H179.974C182.697 91.3668 185.346 92.606 185.346 95.5002C185.346 97.8236 183.585 99.3481 181.14 99.609V99.6906C181.849 99.7476 182.526 99.9922 183.113 100.392C183.92 100.962 184.254 102.071 184.621 103.905C185.094 106.229 185.615 107.232 186.194 107.656C186.585 107.941 187.042 108.137 187.515 108.226V108.357H184.213C183.577 107.713 183.121 106.832 182.868 104.892C182.656 103.318 182.477 101.484 181.727 100.579C181.18 99.8781 180.218 99.7476 179.028 99.7476H177.805V99.6172L179.069 99.5112C181.409 99.3318 181.947 99.1769 182.623 98.3535C183.145 97.7584 183.373 96.9839 183.373 95.5654C183.373 93.2419 182.387 91.7174 179.574 91.7174H178.718C178.123 91.7174 177.577 91.7989 177.316 92.231C177.055 92.6223 177.055 93.2664 177.055 94.2691L177.08 103.229Z" fill="black"/>
<path d="M188.215 108.332V108.202C188.427 108.161 188.639 108.112 188.851 108.047C189.258 107.941 189.576 107.639 189.707 107.248C189.992 106.416 190.041 104.818 190.041 103.196V96.5518C190.041 94.8724 190.017 93.2174 189.707 92.4185C189.576 92.0435 189.267 91.75 188.875 91.644C188.663 91.5706 188.451 91.5136 188.231 91.4891V91.3668H193.596V91.4891C193.359 91.5299 193.123 91.5869 192.894 91.6685C192.536 91.7989 192.25 92.0679 192.12 92.4185C191.835 93.2501 191.81 94.8724 191.81 96.5518V103.188C191.81 104.818 191.835 106.596 192.12 107.297C192.25 107.639 192.528 107.9 192.87 108.022C193.106 108.104 193.351 108.169 193.596 108.202V108.332H188.215Z" fill="black"/>
<path d="M202.033 101.566L198.373 101.672L197.069 105.544C196.808 106.343 196.734 106.783 196.734 107.093C196.734 107.631 197.044 107.868 197.411 108.022C197.664 108.12 197.925 108.186 198.194 108.202V108.332H194.582V108.202C194.867 108.177 195.136 108.104 195.389 107.965C195.666 107.802 195.895 107.558 196.025 107.264C196.286 106.685 196.514 106.09 196.702 105.479L201.495 91.2283H201.887L205.759 103.783C206.085 104.916 206.485 106.033 206.958 107.118C207.243 107.786 207.528 107.941 207.838 108.047C208.066 108.12 208.303 108.169 208.539 108.202V108.332H203.501V108.202C203.737 108.169 203.974 108.112 204.202 108.022C204.626 107.868 204.846 107.631 204.846 107.069C204.846 106.4 204.634 105.96 204.455 105.316L200.99 94.098H200.908L198.471 101.337L202.025 101.443L202.033 101.566Z" fill="black"/>
<path d="M221.423 108.332H209.504V108.177C209.708 108.161 209.904 108.12 210.099 108.071C210.531 107.957 210.866 107.639 211.004 107.215C211.216 106.49 211.29 105.177 211.29 103.808V95.9078C211.29 94.5137 211.208 93.193 210.98 92.443C210.874 92.0353 210.556 91.7255 210.148 91.6195C209.936 91.5625 209.716 91.5136 209.496 91.4891V91.3668H214.901V91.4891C214.665 91.5136 214.428 91.5706 214.2 91.644C213.833 91.7744 213.54 92.0761 213.426 92.443C213.165 93.193 213.116 94.5055 213.116 95.9078V104.973C213.091 105.626 213.148 106.278 213.295 106.906C213.385 107.207 213.564 107.468 213.817 107.656C214.225 107.892 214.689 108.014 215.17 107.99H217.323C218.904 107.99 219.605 107.452 220.151 106.906C220.95 106.041 221.529 104.998 221.839 103.856H221.994L221.423 108.332Z" fill="black"/>
</g>
<defs>
<clipPath id="clip0_2129_7651">
<rect width="124" height="17.691" fill="white" transform="translate(98 91)"/>
</clipPath>
</defs>
</svg>
