<svg width="320" height="200" viewBox="0 0 320 200" fill="none" xmlns="http://www.w3.org/2000/svg">
<g clip-path="url(#clip0_2129_7655)">
<path d="M165.16 87.1054C168.666 87.1011 172.165 87.097 175.67 87.0942C175.672 88.6838 175.673 90.2789 175.675 91.8682C177.737 91.8669 179.787 91.8641 181.851 91.8626C181.853 94.0498 181.855 96.2383 181.857 98.4286C179.794 98.4302 177.743 98.433 175.682 98.4342C175.687 103.19 175.691 107.917 175.696 112.673C173.102 112.9 169.927 113.092 167.896 112.441C166.816 112.094 165.901 111.095 165.51 110.056C165.166 109.154 165.154 101.239 165.151 98.4454C163.741 98.4454 162.302 98.4469 160.894 98.4497C160.891 96.2594 160.889 94.0712 160.887 91.8837C162.295 91.8824 163.734 91.8809 165.144 91.8793C165.142 90.3093 165.101 88.5818 165.16 87.1054Z" fill="black"/>
<path d="M121.018 91.3276C127.015 90.8806 133.73 92.7493 135 97.0093C135.04 97.2007 135.196 98.0415 135.196 98.0415C135.196 98.0415 135.23 109.75 135.233 112.745C131.749 112.749 128.26 112.751 124.778 112.756C124.776 110.785 124.774 108.81 124.773 106.841C121.842 107.705 115.585 108.962 119.577 112.762C117.048 112.764 110.357 112.786 109.177 112.771C107.648 112.431 106.745 110.334 107.113 108.324C107.447 106.495 108.605 105.212 109.98 104.415C113.351 102.457 118.35 102.565 122.708 101.525C123.278 101.388 123.852 101.325 124.278 101.035C124.539 100.857 124.646 100.613 124.711 100.22C125.002 98.4522 123.227 97.9283 121.567 97.9466C121.07 97.951 120.382 98.0291 119.941 98.1659C119.634 98.258 119.207 98.459 118.967 98.6547C118.462 99.0598 118.155 99.6367 118.156 100.554C114.799 100.557 111.436 100.561 108.08 100.564C108.2 99.6671 108.355 98.927 108.62 98.2301C109.098 96.9703 109.733 95.9771 110.567 95.0808C112.86 92.6141 116.576 91.6573 121.018 91.3276Z" fill="black"/>
<path d="M155.579 91.4003C156.731 91.315 157.743 91.6112 158.559 91.886C158.561 94.0735 158.563 96.262 158.565 98.4508C156.694 98.4536 154.667 98.3376 153.365 98.8906C152.579 99.2215 151.791 99.9941 151.471 100.793C151.061 101.81 151.203 103.464 151.204 104.862C151.207 107.48 151.209 110.108 151.213 112.73C147.655 112.732 144.095 112.736 140.541 112.739C140.534 105.793 140.527 98.8503 140.52 91.9043C143.77 91.9 147.113 91.8975 150.366 91.8931C150.368 92.7104 150.307 93.7438 150.381 94.3908C151.438 92.6989 153.019 91.5901 155.579 91.4003Z" fill="black"/>
<path d="M211.61 98.7233C210.586 96.4436 208.864 94.5175 206.728 93.3569C204.271 92.0201 200.789 91.1167 196.813 91.4141C189.717 91.9392 184.858 95.2089 183.66 101.682C183.21 104.102 183.502 106.901 184.209 108.844C184.507 109.666 185.864 112.475 186.489 112.693C187.391 112.644 192.299 112.687 194.235 112.686C194.233 110.947 194.231 109.214 194.229 107.477C200.366 107.471 206.509 107.465 212.648 107.458C213.071 104.298 212.613 100.961 211.61 98.7233ZM193.898 101.997C193.971 101.054 194.088 100.385 194.437 99.7722C194.983 98.8073 195.954 98.1408 197.307 98.0012C200.64 97.6535 202.146 99.2149 202.457 101.989C199.605 101.99 196.749 101.994 193.898 101.997Z" fill="black"/>
</g>
<defs>
<clipPath id="clip0_2129_7655">
<rect width="105.912" height="26" fill="white" transform="translate(107 87)"/>
</clipPath>
</defs>
</svg>
