<svg width="320" height="200" viewBox="0 0 320 200" fill="none" xmlns="http://www.w3.org/2000/svg">
<g clip-path="url(#clip0_2129_7633)">
<path d="M106.392 89.5499C107.428 88.6431 107.99 87.3909 107.99 86.009C107.99 83.2022 105.96 81.3454 102.247 81.3454H95.0352V99.9568H103.887C107.601 99.9568 109.89 97.5386 109.89 94.2999C109.933 91.9249 108.637 90.284 106.392 89.5499ZM98.6192 88.6431V84.6704H102.031C103.801 84.6704 104.665 85.4045 104.665 86.6568C104.665 87.909 103.844 88.6431 102.031 88.6431H98.6192ZM106.306 94.2568C106.306 95.7681 105.312 96.6318 103.412 96.6318H98.6192V91.8818H103.412C105.312 91.8818 106.306 92.7454 106.306 94.2568ZM127.292 99.9568H131.222L124.01 81.3454H120.599L113.215 99.9568H117.101L118.44 96.5022H125.953L127.292 99.9568ZM119.778 93.2636L122.24 86.959L124.701 93.2636H119.778ZM139.642 81.3022H136.058V99.9568H146.594V96.5454H139.642V81.3022ZM159.981 95.6818H162.399L167.019 87.1318V100.043H170.906V81.259H165.853L161.147 89.8522L156.31 81.259H151.431V100.086H155.187V87.2613L159.981 95.6818ZM189.215 99.9568H193.144L185.933 81.3454H182.522L175.137 99.9568H179.024L180.362 96.5022H187.876L189.215 99.9568ZM181.701 93.2636L184.162 86.959L186.624 93.2636H181.701ZM197.506 99.9568H201.176V81.3454H197.506V99.9568ZM220.867 81.3454V93.4363L211.237 81.3454H207.481V99.9568H211.065V86.959L221.385 99.9568H224.451V81.3454H220.867Z" fill="black"/>
<path d="M139.862 115.416H137.962V118.784H136.105V109.457H139.905C141.849 109.457 142.928 110.58 142.928 112.48C142.928 114.38 141.849 115.416 139.862 115.416ZM139.776 113.689C140.553 113.689 140.985 113.257 140.985 112.436C140.985 111.659 140.553 111.184 139.776 111.184H138.005V113.689H139.776Z" fill="black"/>
<path d="M151.566 117.273H147.939L147.334 118.784H145.305L148.932 109.413H150.573L154.071 118.784H152.084L151.566 117.273ZM150.962 115.588L149.796 112.479L148.63 115.588H150.962Z" fill="black"/>
<path d="M163.4 115.243L165.214 118.827H163.098L161.37 115.459H160.204V118.827H158.348V109.457H162.148C164.091 109.457 165.17 110.58 165.17 112.48C165.17 113.905 164.523 114.855 163.4 115.243ZM162.018 113.689C162.795 113.689 163.227 113.257 163.227 112.436C163.227 111.659 162.752 111.184 161.975 111.184H160.204V113.689H162.018Z" fill="black"/>
<path d="M169.699 109.457H171.556V118.827H169.699V109.457Z" fill="black"/>
<path d="M179.375 113.084L181.232 113.602C182.7 114.034 183.477 114.855 183.477 116.15C183.477 117.877 182.139 118.914 179.98 118.914C177.562 118.914 176.396 117.877 176.18 115.589H178.252C178.468 116.755 178.943 117.186 180.066 117.186C180.973 117.186 181.534 116.841 181.534 116.236C181.534 115.718 181.146 115.416 180.412 115.243L178.555 114.682C177.043 114.25 176.352 113.473 176.352 112.091C176.352 110.45 177.777 109.327 179.807 109.327C182.052 109.327 183.477 110.623 183.477 112.695H181.362C181.405 111.616 180.8 111.055 179.634 111.055C178.727 111.055 178.166 111.4 178.166 112.005C178.209 112.566 178.598 112.868 179.375 113.084Z" fill="black"/>
</g>
<defs>
<clipPath id="clip0_2129_7633">
<rect width="129.545" height="38" fill="white" transform="translate(95 81)"/>
</clipPath>
</defs>
</svg>
