<svg width="350" height="200" viewBox="0 0 350 200" fill="none" xmlns="http://www.w3.org/2000/svg">
<path d="M130.684 100C134.481 99.2869 137.352 96.0117 137.352 92.0752C137.352 87.6149 133.673 84 129.135 84H113.004C113.004 91.8677 118.73 98.4155 126.309 99.8522H113.004V116C121.01 116 127.673 110.373 129.135 102.925V116C133.673 116 137.352 112.385 137.352 107.925C137.352 103.986 134.481 100.711 130.684 100Z" fill="black"/>
<path fill-rule="evenodd" clip-rule="evenodd" d="M176.508 89.2246V113.333H171.092V86.6665H173.877C174.599 86.6665 175.218 86.912 175.734 87.4029C176.25 87.8939 176.508 88.5011 176.508 89.2246ZM166.085 111.24C164.378 112.636 161.973 113.333 158.869 113.333H146.688V89.4572C146.688 88.682 146.959 88.0231 147.502 87.4805C148.045 86.9379 148.705 86.6665 149.481 86.6665H159.257C161.999 86.6665 164.094 87.235 165.542 88.372C166.99 89.6123 167.714 91.2919 167.714 93.4107C167.714 94.7544 167.43 95.8914 166.861 96.8216C166.292 97.7002 165.49 98.3978 164.456 98.9146C165.801 99.483 166.835 100.284 167.559 101.318C168.232 102.3 168.568 103.592 168.568 105.194C168.568 107.778 167.74 109.793 166.085 111.24ZM152.027 97.1302H158.386C159.747 97.1302 160.742 96.8941 161.37 96.4221C161.998 95.95 162.312 95.2157 162.312 94.2191C162.312 93.2226 161.998 92.4883 161.37 92.0162C160.847 91.5966 159.826 91.3868 158.308 91.3868H152.027V97.1302ZM158.622 108.853H152.027V101.772H158.543C160.166 101.772 161.318 102.034 161.998 102.559C162.731 103.136 163.098 104.054 163.098 105.312C163.098 106.571 162.731 107.463 161.998 107.987C161.213 108.564 160.088 108.853 158.622 108.853ZM185.019 114.017C185.957 114.017 187.037 113.952 188.261 113.821C189.485 113.691 190.644 113.338 191.738 112.764C192.78 112.242 193.678 111.394 194.433 110.22C195.189 109.046 195.567 107.415 195.567 105.327V98.2026C195.567 96.3237 194.812 94.8623 193.301 93.8185C191.842 92.8268 189.655 92.331 186.738 92.331C184.133 92.331 182.128 92.9312 180.722 94.1316C179.472 95.1754 178.742 96.5064 178.534 98.1243H183.769C184.029 97.5502 184.446 97.1588 185.019 96.95C185.592 96.7412 186.243 96.6369 186.972 96.6369C187.649 96.6369 188.392 96.7542 189.199 96.9891C190.006 97.224 190.41 97.7329 190.41 98.5158C190.41 99.5596 189.264 100.238 186.972 100.551C186.503 100.603 186.087 100.669 185.722 100.747C185.357 100.825 185.045 100.864 184.785 100.864C182.805 101.178 181.177 101.804 179.901 102.743C178.625 103.683 177.987 105.249 177.987 107.441C177.987 109.789 178.69 111.473 180.097 112.49C181.503 113.508 183.144 114.017 185.019 114.017ZM183.798 109.246C184.269 109.666 184.949 109.876 185.839 109.876C187.305 109.876 188.456 109.456 189.294 108.617C190.131 107.778 190.55 106.624 190.55 105.155V103.188C189.817 103.555 188.797 103.896 187.488 104.211L185.682 104.604C184.74 104.867 184.059 105.208 183.641 105.627C183.274 106.204 183.091 106.781 183.091 107.358C183.091 108.145 183.326 108.774 183.798 109.246ZM202.76 113.333V100.207C202.76 98.9714 203.12 98.0706 203.839 97.5043C204.558 96.9381 205.38 96.655 206.305 96.655C207.229 96.655 208.065 96.9381 208.809 97.5043C209.554 98.0706 209.926 98.9714 209.926 100.207V110.708C209.926 111.48 210.171 112.111 210.659 112.6C211.147 113.089 211.776 113.333 212.547 113.333H215.244V101.288C215.244 97.6845 214.293 95.2908 212.393 94.1069C210.492 92.923 208.411 92.331 206.151 92.331C203.941 92.4339 201.925 93.0774 200.101 94.2614C198.278 95.4453 197.366 97.7874 197.366 101.288V113.333H202.76ZM222.789 105.504V113.333H217.373V86.6665H220.158C220.881 86.6665 221.5 86.9249 222.015 87.4417C222.531 87.9585 222.789 88.5528 222.789 89.2246V100.31L229.365 92.713H235.864L228.514 100.62L235.941 113.333H229.442L225.652 106.356C224.877 104.961 224.207 104.367 223.64 104.574C223.073 104.78 222.789 105.09 222.789 105.504Z" fill="black"/>
</svg>
