<svg width="320" height="200" viewBox="0 0 320 200" fill="none" xmlns="http://www.w3.org/2000/svg">
<path fill-rule="evenodd" clip-rule="evenodd" d="M120.004 96.2701C116.393 96.2701 116.19 93.7799 116.19 89.9177C116.19 86.3948 116.325 83.5491 120.106 83.5491C122.587 83.5491 123.549 84.7514 123.549 87.089V87.36H121.675V87.14C121.675 86.1069 121.456 84.9887 120.055 84.9887C118.215 84.9887 118.114 86.8859 118.114 89.7993C118.114 93.3058 118.249 94.8472 119.988 94.8472C121.54 94.8472 121.76 93.6615 121.76 92.4418V92.1708H123.65V92.4927C123.65 95.0335 122.486 96.2701 120.004 96.2701ZM129.493 89.8153C129.409 89.1019 129.139 88.5244 128.328 88.5244C127.484 88.5244 127.146 89.085 127.044 89.8833C126.994 90.2401 126.977 90.5627 126.977 90.9533H129.527C129.527 90.5627 129.544 90.2059 129.493 89.8153ZM126.977 92.0235V92.7031C126.977 94.1469 127.179 95.0811 128.277 95.0811C129.341 95.0811 129.527 94.1976 129.544 93.3146H131.216C131.132 95.2679 130.338 96.2701 128.277 96.2701C125.474 96.2701 125.22 94.3337 125.22 92.0066C125.22 89.6965 125.474 87.3183 128.379 87.3183C130.693 87.3183 131.165 88.7791 131.25 90.5968C131.267 91.0554 131.267 91.5479 131.267 92.0235H126.977ZM137.679 96.0345V90.4433C137.679 89.5144 137.662 88.5346 136.548 88.5346C135.502 88.5346 135.131 89.7338 135.131 90.5954V96.0345H133.376V89.1259C133.376 88.5854 133.359 88.0617 133.308 87.5212H135.08V88.5514C135.468 87.8759 136.228 87.3183 137.223 87.3183C138.927 87.3183 139.433 88.467 139.433 89.9535V96.0345H137.679ZM144.391 96.1915C142.655 96.1915 142.195 95.6133 142.195 93.9473V88.7448H141.004V87.5378H142.195V86.0246L143.965 85.2766V87.5378H145.395V88.7449H143.965V93.7263C143.965 94.5933 144.118 94.8995 144.884 94.8995C145.071 94.8995 145.276 94.8825 145.48 94.8484V96.1235C145.123 96.1746 144.765 96.1915 144.391 96.1915ZM150.735 88.9122C149.389 88.9122 148.868 89.7602 148.868 91.015V96.0345H147.118V89.031C147.118 88.8104 147.067 87.7082 147.05 87.4879H148.733L148.784 88.607C149.272 87.6744 150.045 87.3183 150.887 87.3183C150.92 87.3183 150.988 87.3183 151.055 87.3351V88.9462C150.988 88.9293 150.836 88.9122 150.735 88.9122ZM156.349 89.8153C156.264 89.1019 155.994 88.5244 155.184 88.5244C154.339 88.5244 154.001 89.085 153.9 89.8833C153.849 90.2401 153.833 90.5627 153.833 90.9533H156.383C156.383 90.5627 156.4 90.2059 156.349 89.8153ZM153.833 92.0235V92.7031C153.833 94.1469 154.035 95.0811 155.133 95.0811C156.197 95.0811 156.383 94.1976 156.4 93.3146H158.072C157.987 95.2679 157.194 96.2701 155.133 96.2701C152.329 96.2701 152.076 94.3337 152.076 92.0066C152.076 89.6965 152.329 87.3183 155.234 87.3183C157.548 87.3183 158.021 88.7791 158.106 90.5968C158.122 91.0554 158.122 91.5479 158.122 92.0235H153.833ZM97.0584 102.326H96.0954V106.41H96.9739C98.5451 106.41 99.2042 105.969 99.2042 104.309C99.2042 102.733 98.5283 102.326 97.0584 102.326ZM97.1261 107.85H96.0954V113.153H94.2031V100.903H97.4639C99.9306 100.903 101.113 101.683 101.113 104.292C101.113 107.477 99.5083 107.85 97.1261 107.85ZM106.785 108.18C106.785 106.991 106.803 105.564 105.475 105.564C104.062 105.564 104.078 107.212 104.078 108.214V109.692C104.078 110.694 104.062 112.121 105.441 112.121C106.751 112.121 106.785 110.779 106.785 109.777V108.18ZM105.441 113.31C102.529 113.31 102.291 111.509 102.291 108.876C102.291 106.447 102.631 104.358 105.509 104.358C108.352 104.358 108.573 106.125 108.573 108.673C108.573 111.492 108.25 113.31 105.441 113.31ZM118.745 113.153V107.393C118.745 106.565 118.728 105.67 117.71 105.67C116.727 105.67 116.438 106.734 116.438 107.579V113.153H114.675V107.376C114.675 106.379 114.624 105.67 113.674 105.67C112.588 105.67 112.368 107.021 112.368 107.747V113.153H110.604V105.94C110.604 105.501 110.587 105.078 110.536 104.639H112.3V105.653C112.724 104.944 113.487 104.437 114.335 104.437C115.573 104.437 115.997 105.011 116.235 105.67C116.71 105.028 117.405 104.437 118.372 104.437C120.288 104.437 120.509 105.957 120.509 107.325V113.153H118.745ZM126.073 105.641C124.698 105.641 124.664 107.525 124.664 109.018C124.664 110.563 124.766 112.141 126.073 112.141C127.347 112.141 127.364 110.036 127.364 108.747C127.364 107.219 127.313 105.641 126.073 105.641ZM126.617 113.346C125.785 113.346 125.157 113.091 124.698 112.412V116.451H122.933V106.643C122.933 106.354 122.898 104.929 122.865 104.64H124.596L124.614 105.59C125.106 104.81 125.904 104.437 126.753 104.437C129.045 104.437 129.147 106.507 129.147 108.815C129.147 111.089 128.994 113.346 126.617 113.346H126.617ZM131.222 113.153H132.961V104.617H131.222V113.153ZM131.188 102.72H132.994V101.06H131.188V102.72ZM138.143 105.615C136.903 105.615 136.819 107.225 136.819 108.92C136.819 110.462 136.954 112.123 138.126 112.123C139.433 112.123 139.501 110.462 139.501 108.971C139.501 107.276 139.416 105.615 138.143 105.615ZM139.62 113.157L139.586 112.208C139.094 112.971 138.482 113.31 137.583 113.31C135.24 113.31 135.036 111.022 135.036 108.869C135.036 106.547 135.308 104.412 137.498 104.412C138.414 104.412 139.009 104.717 139.484 105.412V100.903H141.25V111.581C141.25 111.818 141.301 112.92 141.318 113.157H139.62ZM147.854 108.18C147.854 106.991 147.871 105.564 146.543 105.564C145.13 105.564 145.147 107.212 145.147 108.214V109.692C145.147 110.694 145.13 112.121 146.509 112.121C147.82 112.121 147.854 110.779 147.854 109.777V108.18ZM146.509 113.31C143.598 113.31 143.36 111.509 143.36 108.876C143.36 106.447 143.7 104.358 146.577 104.358C149.42 104.358 149.642 106.125 149.642 108.673C149.642 111.492 149.318 113.31 146.509 113.31ZM156.032 113.157L156.015 112.171C155.524 112.936 154.847 113.31 153.933 113.31C152.326 113.31 151.683 112.392 151.683 110.795V104.594H153.443V110.2C153.443 111.05 153.46 112.104 154.593 112.104C155.744 112.104 155.981 110.931 155.981 109.997V104.594H157.741V111.543C157.741 112.138 157.774 112.596 157.808 113.157H156.032ZM226.203 87.5538L174.848 87.5582V90.4066H212.81L209.291 93.2555H174.848V96.1041H199.095L195.577 98.9529H174.848V101.802H185.415L181.897 104.65H174.848V107.499H182.824L189.857 101.802H196.497L203.537 96.1041H210.218L217.252 90.4067L226.203 90.4029V87.5538Z" fill="black"/>
<path fill-rule="evenodd" clip-rule="evenodd" d="M226.191 110.304H188.176L191.694 107.455H226.191V104.606H201.856L205.374 101.757H226.191V98.9082H215.57L219.088 96.0592H226.191L226.19 93.2076L218.167 93.2103L211.127 98.9082H204.445L197.413 104.606H190.772L183.733 110.304H174.836V113.153H226.191V110.304Z" fill="black"/>
</svg>
