<svg width="320" height="200" viewBox="0 0 320 200" fill="none" xmlns="http://www.w3.org/2000/svg">
<path fill-rule="evenodd" clip-rule="evenodd" d="M103.606 102.971L107.497 105.2C105.552 108.777 101.755 111.1 97.4554 111.1C91.1783 111.1 86 106.298 86 99.55C86 92.8024 91.1783 88 97.4554 88C101.755 88 105.553 90.3228 107.497 93.9012L103.606 96.1293C102.476 93.8065 100.186 92.395 97.4554 92.395C93.5318 92.395 90.551 95.3127 90.551 99.55C90.551 103.787 93.5318 106.706 97.4554 106.706C100.186 106.706 102.476 105.293 103.606 102.971ZM128.368 110.535V101.119H117.384V110.535H112.99V88.5651H117.384V96.726H128.368V88.5651H132.763V110.535H128.368ZM153.853 101.433L149.867 92.175L145.881 101.433H153.853ZM162.578 110.535H157.775L155.61 105.513H144.123L141.958 110.535H137.156L146.885 88.5651H152.849L162.578 110.535ZM182.821 110.535L171.051 93.2423V110.535H166.971V88.5651H172.778L182.664 103.128V88.5651H186.744V110.535H182.821ZM195.217 110.535V88.5651H210.91V92.6456H199.297V97.3534H209.34V101.433H199.297V106.455H211.537V110.535H195.217ZM218.599 110.535V88.5651H222.992V106.142H234.604V110.535H218.599Z" fill="black"/>
</svg>
