<svg width="320" height="200" viewBox="0 0 320 200" fill="none" xmlns="http://www.w3.org/2000/svg">
<path d="M144.124 68C144.421 68.1988 144.353 68.5741 144.387 68.8826C144.468 69.8552 144.616 70.8706 144.731 71.887C144.879 73.3009 144.822 74.8468 144.674 76.1938C144.376 78.822 143.793 81.4172 142.878 83.3713C141.951 85.3371 140.476 87.0381 138.875 88.4511C137.685 89.5004 136.279 90.3946 134.792 91.2121C134.404 91.4216 133.717 91.9191 133.191 91.5438C133.305 91.0686 133.809 91.0133 134.129 90.8591C134.883 90.4838 135.742 89.9319 136.416 89.4015C138.463 87.778 139.996 85.5252 141.048 82.9193C141.734 81.2183 142.283 79.1643 142.421 76.9338C142.557 74.7585 142.672 72.207 142.054 70.1976C141.619 70.3964 141.311 70.7717 140.968 71.0802C139.961 72.0082 138.864 72.914 137.937 73.9517C135.524 76.6574 133.557 80.0585 132.677 84.2664C132.231 86.3971 132.299 88.9816 132.734 91.3004C133.545 95.5743 135.593 98.7765 137.194 102.421C137.971 104.188 138.578 106.164 139.104 108.274C139.596 110.25 139.79 112.967 139.333 115.252C139.664 115.043 139.893 114.7 140.156 114.402C140.911 113.53 141.803 112.724 142.843 112.061C143.483 111.653 144.261 111.276 145.016 110.847C145.348 110.659 145.679 110.449 146.068 110.217C146.354 110.051 146.903 109.687 147.292 109.775C147.567 109.842 147.738 110.273 147.749 110.626C147.784 111.41 147.452 112.116 147.201 112.746C146.938 113.42 146.686 114.06 146.515 114.734C146.789 114.689 146.972 114.447 147.166 114.27C148.436 113.165 149.35 111.841 150.7 110.791C150.941 110.604 151.261 110.394 151.467 110.626C151.65 110.824 151.33 111.267 151.158 111.509C150.929 111.83 150.723 112.072 150.586 112.282C149.659 113.662 148.94 115.055 148.848 117.218C148.825 117.715 148.836 118.279 149.099 118.377C149.568 118.543 150.197 118.179 150.529 118.024C151.032 117.782 151.524 117.516 151.695 117.064C151.947 116.379 152.016 115.672 152.267 115.054C152.69 113.994 153.48 112.724 154.348 111.94C154.703 111.619 155.538 110.979 156.121 111.111C156.316 111.156 156.282 111.167 156.373 111.388C156.807 107.755 158.466 105.06 160.284 102.587C161.61 100.786 163.223 99.208 165.03 97.7281C165.305 97.507 165.591 97.2744 165.945 97.0426C166.288 96.8108 166.746 96.5237 167.146 96.546C167.638 97.0212 167.477 97.959 167.375 98.699C167.077 100.808 165.911 102.354 164.779 103.724C163.578 105.17 162.32 106.319 160.696 107.313C160.147 107.644 159.392 107.931 159.014 108.417C158.569 108.98 158.488 110.074 158.386 110.924C157.997 113.982 158.66 116.743 160.296 118.124C160.879 118.61 161.588 119.007 162.548 119.063C163.486 119.107 164.379 118.819 165.03 118.378C165.682 117.936 166.06 117.329 166.174 116.39C166.231 115.937 166.231 115.496 166.288 114.955C166.335 114.513 166.402 113.994 166.231 113.574C165.808 112.514 164.527 112.083 163.349 111.841C161.908 111.542 160.525 111.752 159.461 112.282C159.277 112.371 158.98 112.724 158.694 112.669C158.614 112.657 158.431 112.491 158.409 112.393C158.34 112.061 158.912 111.597 159.232 111.343C160.284 110.527 161.52 109.754 162.777 109.245C164.127 108.693 165.534 108.262 167.467 108.307C168.015 108.317 168.862 108.449 169.353 108.329C169.696 108.251 170.085 107.854 170.348 107.556C170.92 106.927 171.4 106.353 172.201 105.9C172.396 105.789 173.172 105.359 173.597 105.568C173.768 105.646 173.86 105.877 173.882 106.121C174.008 107.18 173.825 108.185 173.631 109.014C173.436 109.863 173.081 110.603 172.979 111.498C173.333 111.409 173.585 111.111 173.837 110.89C175.083 109.742 175.472 107.699 176.696 106.474C176.936 106.23 177.188 106.021 177.496 105.811C177.771 105.623 178.079 105.336 178.491 105.424C178.605 105.866 178.274 106.253 178.091 106.606C177.519 107.71 176.97 108.848 176.433 110.029C176.089 110.791 175.724 111.587 175.438 112.403C175.14 113.232 174.808 114.115 174.865 115.076C175.461 114.855 175.883 114.381 176.295 113.971C177.131 113.155 177.725 112.095 178.355 111.023C178.903 110.074 179.292 109.057 180.698 108.958C181.019 109.377 180.71 109.841 180.527 110.195C180.149 110.957 179.852 111.741 179.532 112.569C179.371 112.967 179.154 113.43 179.36 113.895C179.829 114.049 180.298 113.696 180.675 113.431C181.11 113.122 181.636 112.746 181.727 112.249C181.774 112.017 181.705 111.763 181.705 111.509C181.705 109.863 181.99 108.262 182.3 106.849C182.494 105.966 182.654 105.182 182.928 104.453C183.203 103.713 183.558 103.062 183.844 102.333C182.883 102.442 182.323 102.807 181.591 103.215C181.293 103.381 180.996 103.569 180.619 103.79C180.412 103.912 179.704 104.342 179.509 104.011C179.269 103.625 180.24 102.994 180.424 102.852C181.66 101.935 183.077 101.195 184.712 100.698C185.49 99.3837 186.142 97.8931 187.48 97.0871C187.675 96.9659 187.915 96.8224 188.132 96.6788C188.326 96.5451 188.59 96.3133 188.875 96.4577C188.875 97.2423 188.258 97.6943 187.88 98.1917C187.48 98.7213 187.046 99.2187 186.886 99.9578C187.537 99.9578 188.201 99.7483 188.887 99.627C190.808 99.2847 193.302 99.0529 195.429 99.4398C195.292 99.7483 194.937 99.9578 194.628 100.234C194.365 100.478 194.034 100.908 193.69 100.974C193.427 101.029 193.061 100.952 192.719 100.952C191.105 100.952 189.562 101.052 188.063 101.173C187.343 101.228 186.668 101.272 186.154 101.505C185.582 102.067 185.078 103.37 184.781 104.265C184.462 105.215 184.221 106.363 184.072 107.323C183.844 108.793 183.797 110.979 184.187 112.458C184.324 112.956 184.472 113.629 184.873 113.674C185.227 113.707 185.673 113.243 185.925 113.044C186.874 112.294 187.492 111.222 188.006 110.117C188.532 109.003 188.842 107.721 189.745 106.86C189.996 106.617 190.511 106.22 190.831 106.386C191.346 106.662 190.637 107.909 190.523 108.152C189.927 109.344 189.435 110.24 188.922 111.41C188.681 111.962 188.384 112.581 188.44 113.231C189.195 113.53 189.356 112.723 189.608 112.161C190.019 111.244 190.328 110.438 190.923 109.676C191.197 109.334 191.518 108.87 192.032 108.87C192.295 108.881 192.501 109.047 192.547 109.201C192.65 109.555 192.215 110.051 192.066 110.328C191.838 110.747 191.655 111.023 191.609 111.542C192.101 111.487 192.444 111.056 192.833 110.747C193.599 110.141 194.422 109.588 195.521 109.256C196.184 109.057 197.556 108.627 197.922 109.278C198.242 109.853 197.739 110.835 197.464 111.343C197.133 111.962 196.755 112.547 196.492 113.132C196.229 113.707 195.955 114.447 195.749 115.142C195.521 115.915 195.2 117.317 195.841 117.87C196.298 118.268 197.144 118.333 197.899 118.311C199.466 118.267 200.301 117.362 201.216 116.655C201.661 116.312 202.199 115.87 202.931 115.992V116.158C202.416 116.798 201.685 117.273 200.964 117.781C199.603 118.742 198.265 119.879 196.047 120.067C194.64 120.189 193.439 119.659 193.336 118.278C193.21 116.656 193.851 115.176 194.331 114.027C194.593 113.387 194.903 112.845 195.211 112.294C195.521 111.741 195.886 111.167 195.921 110.394C195.497 110.14 195.017 110.371 194.64 110.504C192.741 111.167 191.644 112.735 190.408 114.148C190.18 114.402 189.927 114.668 189.607 114.922C189.391 115.087 188.727 115.484 188.498 115.23C188.349 115.065 188.624 114.767 188.555 114.49C187.949 114.557 187.068 115.408 186.44 115.153C185.994 114.966 186.371 114.115 186.383 113.662C186.245 113.629 186.165 113.796 186.073 113.883C185.479 114.402 183.935 115.65 182.814 115.23C182.186 114.998 182.208 114.148 182.047 113.387C181.648 113.431 181.362 113.784 181.053 114.049C180.767 114.303 180.447 114.545 180.115 114.767C179.474 115.209 178.595 115.728 177.748 115.705C177.21 115.695 176.913 115.352 176.867 114.8C176.501 114.877 176.307 115.23 176.044 115.463C175.506 115.949 174.946 116.345 174.133 116.644C173.447 116.898 172.624 117.075 172.567 116.148C172.522 115.341 172.785 114.49 173.024 113.773C173.265 113.044 173.619 112.393 173.848 111.763C173.574 111.829 173.391 112.182 173.162 112.481C172.933 112.779 172.613 113.044 172.453 113.31C172.075 113.905 171.927 114.645 171.537 115.264C170.795 116.478 170.074 117.484 168.965 118.433C168.724 118.643 168.472 118.831 168.164 119.063C167.901 119.262 167.558 119.615 167.249 119.592C166.677 119.548 166.62 118.444 166.335 118.079C165.522 118.709 164.973 119.549 164.081 120.178C163.28 120.741 162.103 121.359 160.764 121.172C159.575 120.995 158.821 120.145 158.168 119.405C157.471 118.61 156.944 117.738 156.681 116.589C155.447 117.362 154.497 118.389 153.251 119.206C152.862 119.46 152.359 119.78 151.764 119.67C151.512 119.493 151.479 119.096 151.501 118.654C150.494 119.051 149.374 120.52 147.783 120.145C147.429 120.056 147.041 119.824 146.846 119.46C146.091 118.057 147.384 115.992 147.647 114.932C147.223 114.977 146.949 115.33 146.652 115.595C146.331 115.871 145.965 116.092 145.657 116.368C144.09 118.875 142.214 121.702 139.824 123.733C139.093 124.363 138.166 125.279 136.885 125.191C135.479 125.092 135.821 123.479 136.062 122.32C135.696 122.541 135.501 122.927 135.238 123.225C134.437 124.12 133.466 124.904 132.585 125.766C136.542 128.581 143.106 129.674 149.751 128.88C151.238 128.703 152.69 128.36 154.063 127.997C158.1 126.925 161.645 125.17 165.35 123.778C167.821 122.851 170.497 121.911 173.493 121.547C176.593 121.172 180.241 121.205 183.409 121.547C188.818 122.144 193.438 123.678 197.499 125.6C198.07 125.877 198.665 126.13 199.065 126.593C198.768 126.704 198.482 126.771 198.185 126.87C197.922 126.959 197.579 127.157 197.327 127.146C197.11 127.134 196.71 126.804 196.469 126.671C195.612 126.207 194.651 125.832 193.759 125.457C192.513 124.937 191.163 124.463 189.87 124.076C187.194 123.28 183.993 122.817 180.904 122.475C175.872 121.922 170.623 122.508 166.929 123.932C165.682 124.418 164.538 125.026 163.36 125.611C162.183 126.197 160.925 126.682 159.701 127.212C158.466 127.753 157.231 128.273 155.961 128.725C155.309 128.957 154.634 129.133 153.96 129.354C153.308 129.575 152.656 129.818 151.993 130.017C150.608 130.414 149.099 130.635 147.533 130.846C144.284 131.275 140.808 131.177 137.88 130.514C135.421 129.961 133.214 129.045 131.339 127.841C131.144 127.72 130.744 127.356 130.538 127.345C130.092 127.312 129.428 127.996 129.028 128.25C127.552 129.2 126.135 130.182 124.545 130.955C122.76 131.828 118.438 133.054 117.66 130.326V129.885C117.912 128.515 118.804 127.62 119.662 126.903C120.622 126.097 121.525 125.49 122.773 125.004C124.762 124.219 128.159 123.811 130.286 124.705C130.595 124.838 130.847 125.004 131.201 125.059C131.841 125.17 132.538 124.352 132.974 123.954C134.404 122.651 135.593 121.205 136.542 119.537C137.171 118.433 137.697 117.052 137.937 115.65C138.212 114.104 138.052 112.171 137.822 110.736C137.343 107.721 136.37 105.17 135.192 102.796C134.026 100.434 132.699 98.1694 131.682 95.7071C131.156 94.4367 130.721 93.1119 130.538 91.599C130.344 89.9756 130.515 88.2862 130.743 86.718C131.178 83.7137 132.139 80.9759 133.317 78.7123C135.147 75.1998 137.617 72.4174 140.636 70.054C141.105 69.6787 141.654 69.3471 142.237 68.9824C142.672 68.6187 143.244 68.1212 143.895 68L144.124 68ZM161.955 102.046C160.81 103.58 159.895 105.347 159.267 107.346C160.925 106.628 162.366 105.513 163.406 104.121C164.173 103.105 164.848 101.835 165.122 100.367C165.213 99.8918 165.385 99.3284 165.179 98.8211H165.122C165.087 98.8318 165.065 98.8657 165.042 98.8978C163.829 99.7153 162.835 100.853 161.954 102.045L161.955 102.046ZM171.012 110.537C170.989 110.935 170.954 111.454 171.206 111.642C171.469 111.144 171.515 110.283 171.435 109.543C171.389 109.555 171.355 109.543 171.332 109.521C171.16 109.775 171.047 110.107 171.012 110.537ZM167.444 111.177C167.707 110.88 167.901 110.515 168.038 110.107C167.203 109.72 165.717 109.764 164.79 110.018C165.945 110.195 166.598 110.781 167.444 111.177ZM154.474 114.656C154.2 115.418 153.971 116.158 153.788 116.997C153.731 117.263 153.616 117.605 153.788 117.848C154.257 117.638 154.669 117.197 155.103 116.831C155.275 116.689 155.492 116.501 155.755 116.279C155.996 116.081 156.316 115.915 156.35 115.672C156.373 115.551 156.327 115.396 156.327 115.264C156.281 114.049 156.259 112.437 156.327 111.398C156.179 111.586 155.962 111.708 155.79 111.896C155.149 112.602 154.852 113.608 154.474 114.656ZM143.244 115.617C143.21 116.191 143.644 116.456 144.124 116.191C144.342 116.07 144.513 115.606 144.639 115.309C145.062 114.292 145.497 113.176 145.463 112.028C145.439 112.028 145.428 112.028 145.439 112.006C145.439 111.984 145.439 111.973 145.416 111.984C144.89 112.393 144.536 112.923 144.101 113.629C143.713 114.27 143.29 114.922 143.244 115.617ZM142.614 113.243C142.111 113.861 141.517 114.414 140.991 115.087C140.499 115.728 140.019 116.424 139.596 117.185C138.944 118.333 138.601 119.592 138.372 121.161C138.291 121.669 138.143 122.21 138.177 122.706C138.246 124.241 139.767 122.85 140.145 122.43C141.391 121.05 142.317 119.526 143.176 117.881C142.614 117.914 142.272 118.389 141.631 118.19C141.174 118.046 141.105 117.395 141.208 116.81C141.494 115.143 142.981 113.696 143.689 112.557C143.644 112.547 143.644 112.514 143.609 112.503C143.587 112.536 143.541 112.525 143.529 112.558C143.221 112.779 142.946 113.044 142.614 113.243ZM168.587 117.273C168.85 117.306 169.113 116.865 169.238 116.666C169.788 115.837 170.165 115.031 170.463 114.071C169.491 113.994 169.045 113.42 168.747 112.69C168.427 113.497 168.164 115.209 168.244 116.39C168.267 116.722 168.347 117.241 168.587 117.273ZM123.539 126.616C121.983 127.058 120.68 127.665 119.536 128.548C119.079 128.901 118.209 129.509 118.335 130.282C118.392 130.68 118.987 130.879 119.479 130.912C120.852 131.011 121.754 130.546 122.818 130.172C123.619 129.885 124.351 129.509 125.071 129.155C125.815 128.78 126.535 128.416 127.21 128.03C127.919 127.62 128.617 127.2 129.12 126.649C128.136 125.986 126.055 126.107 124.705 126.318C124.305 126.384 123.916 126.518 123.539 126.616Z" fill="black"/>
<path d="M148.077 83.8029C149.014 84.0561 148.899 85.1384 148.899 86.4195C148.899 87.1372 148.751 87.9324 149.186 88.1312C149.358 88.2087 149.597 88.1312 149.7 88.2417C149.609 88.396 149.346 88.3193 149.152 88.3193C148.614 88.3193 147.847 88.3639 147.378 88.264C147.413 88.1089 147.619 88.1865 147.722 88.1535C148.167 87.9992 148.065 87.3805 148.065 86.6076C148.065 85.7018 148.202 84.7524 147.722 84.3984C147.013 84.2335 146.475 84.6088 146.155 84.9735C146.201 85.6359 146.109 86.8501 146.132 87.5348C146.144 87.9983 146.384 88.1642 146.819 88.2194C146.727 88.3746 146.464 88.297 146.281 88.297C145.743 88.297 144.977 88.3416 144.508 88.2417C144.645 88.0982 145.023 88.1642 145.16 88.0206C145.389 87.6569 145.308 87.1487 145.308 86.6406V83.6041C145.308 83.1182 145.412 82.6101 145.103 82.3114C144.92 82.2784 144.725 82.3783 144.622 82.3114C144.645 82.1126 145.057 82.0574 145.275 81.9807C145.571 81.8701 145.858 81.7489 146.098 81.649C146.235 82.5655 146.121 83.9794 146.167 84.6864C146.693 84.2772 147.127 83.5373 148.077 83.8029ZM154.422 82.8196C153.885 82.7536 153.804 81.9468 154.365 81.8256C155.212 81.6268 155.188 82.9079 154.422 82.8196ZM164.19 82.5102C163.949 83.063 163 82.7973 163.218 82.1242C163.252 82.0351 163.343 81.8701 163.595 81.8256C164.041 81.7266 164.372 82.1126 164.19 82.5102ZM160.896 83.1503V83.835C161.171 83.9019 161.571 83.8466 161.891 83.8573V84.2112H160.92C160.92 84.829 160.828 86.2867 160.896 87.1372C160.931 87.5678 161.068 87.9324 161.583 87.8771C161.88 87.8441 161.948 87.6346 162.211 87.5241C162.28 87.6667 162.063 87.8548 161.926 87.9876C161.663 88.2524 161.343 88.4628 160.725 88.396C159.57 88.0652 160.256 85.5253 160.073 84.1996C159.844 84.1667 159.49 84.2665 159.364 84.1444C159.421 83.9019 159.707 83.868 159.878 83.7583C160.29 83.482 160.565 83.1067 160.737 82.5994C160.747 82.5762 160.771 82.5548 160.759 82.5102C160.782 82.5432 160.805 82.5432 160.816 82.5432C160.965 82.6538 160.896 82.9186 160.896 83.1503ZM155.167 88.33C154.594 88.33 153.805 88.3746 153.313 88.2747C153.417 88.1089 153.599 88.2194 153.795 88.1419C154.274 87.9431 154.103 86.9161 154.103 86.0442C154.103 85.4255 154.194 84.542 153.897 84.4216C153.713 84.3432 153.485 84.5197 153.382 84.3984C153.508 84.2326 153.828 84.156 154.068 84.0677C154.354 83.9572 154.651 83.8805 154.892 83.769C154.914 83.769 154.914 83.802 154.949 83.802C154.904 84.2772 154.926 85.0501 154.926 85.8454C154.926 86.6843 154.755 87.9431 155.212 88.1642C155.395 88.2194 155.589 88.1312 155.738 88.2533C155.681 88.396 155.361 88.33 155.167 88.33ZM164.396 88.33C163.824 88.33 163.035 88.3746 162.543 88.2747C162.645 88.1205 162.851 88.2087 163.023 88.1419C163.206 88.0652 163.309 87.9101 163.332 87.623C163.401 86.9829 163.377 85.6795 163.332 85.0065C163.32 84.7854 163.24 84.4983 163.161 84.4537C162.989 84.3432 162.726 84.5206 162.623 84.3984C162.726 84.2442 163.023 84.1667 163.274 84.0677C163.572 83.9572 163.858 83.8903 164.133 83.769C164.178 84.1667 164.156 85.0724 164.156 85.8899C164.156 86.728 163.995 87.8887 164.384 88.1205C164.578 88.2194 164.785 88.1312 164.967 88.2524C164.91 88.396 164.589 88.33 164.396 88.33ZM171.339 84.6641C171.909 84.3993 172.047 83.6701 173.054 83.7806C174.677 83.9679 173.877 86.3642 174.106 87.7567C174.163 88.0866 174.506 88.2087 174.906 88.2203C174.86 88.4075 174.563 88.33 174.392 88.33C173.843 88.33 173.065 88.3746 172.596 88.2747C172.551 88.0982 172.848 88.264 172.882 88.1651C173.408 88.1651 173.247 87.1933 173.247 86.5416C173.247 85.7125 173.431 84.5536 172.848 84.3878C172.287 84.2335 171.681 84.6311 171.338 85.0172C171.51 85.7348 171.018 87.8334 171.567 88.1312C171.716 88.2087 171.875 88.1205 172.024 88.2417C171.932 88.3969 171.669 88.3193 171.487 88.3193C170.949 88.3193 170.183 88.3639 169.714 88.264C169.794 88.1098 170.046 88.1865 170.195 88.1312C170.641 87.944 170.515 87.1594 170.515 86.3642C170.515 85.536 170.629 84.7863 170.309 84.41C170.137 84.3441 169.954 84.4653 169.828 84.41C169.863 84.1889 170.217 84.1667 170.458 84.0784C170.743 83.9687 171.041 83.8582 171.281 83.7477C171.315 83.7477 171.327 83.7583 171.338 83.7806V84.6632L171.339 84.6641ZM151.507 83.7797V84.4983C151.805 84.1996 152.205 83.7254 152.731 83.7806C152.959 83.802 153.36 84.0454 153.245 84.4653C153.211 84.575 153.063 84.7194 152.902 84.7417C152.479 84.7961 152.514 84.4207 152.159 84.41C151.793 84.3984 151.701 84.7524 151.507 84.9619C151.564 85.6359 151.438 86.8831 151.507 87.5793C151.552 88.0652 151.828 88.1642 152.308 88.2417C152.251 88.3844 151.93 88.3193 151.736 88.3193C151.164 88.3193 150.375 88.3639 149.883 88.264C149.975 88.1089 150.192 88.1972 150.364 88.1312C150.832 87.9324 150.673 87.1265 150.673 86.2537C150.673 85.4691 150.775 84.7524 150.477 84.41C150.283 84.3771 150.1 84.476 149.963 84.41C150.089 84.1996 150.409 84.1667 150.649 84.0784C150.912 83.9794 151.175 83.8689 151.416 83.7806H151.506L151.507 83.7797ZM158.804 85.2489C158.586 85.1384 158.677 84.9726 158.609 84.8077C158.448 84.4207 158.049 84.09 157.557 84.09C157.111 84.09 156.619 84.3878 156.813 84.9726C156.917 85.2935 157.408 85.503 157.785 85.6911C158.403 86.0005 159.203 86.4195 159.158 87.3475C159.112 88.0875 158.357 88.5065 157.477 88.4182C157.191 88.396 156.927 88.2087 156.653 88.231C156.425 88.2417 156.482 88.3523 156.23 88.363C156.195 87.9217 156.162 87.1594 156.23 86.7618C156.425 86.8064 156.391 87.0605 156.425 87.171C156.596 87.6676 157.191 88.363 158.026 88.0536C158.403 87.911 158.552 87.4028 158.254 87.0052C157.763 86.3428 156.116 86.2323 156.138 85.0172C156.15 84.1114 157.099 83.5818 158.049 83.8359C158.254 83.8912 158.506 84.1123 158.826 83.9242C158.769 84.3771 158.93 84.9066 158.804 85.2489ZM169.473 87.6453C169.449 88.2863 167.849 88.8934 167.871 87.7229C167.391 87.9324 166.98 88.5734 166.099 88.4075C165.538 88.3077 165.252 87.8004 165.332 87.1701C165.47 86.0442 166.968 85.8454 167.871 85.4584C167.986 84.6088 167.7 84.1007 167.071 84.0784C166.877 84.0677 166.522 84.1444 166.384 84.3218C166.213 84.5643 166.408 85.0172 166.236 85.2044C166.007 85.4593 165.619 85.2712 165.55 85.15C165.493 85.0394 165.505 84.7194 165.55 84.5759C165.893 83.5488 168.501 83.4267 168.695 84.6525C168.775 85.1277 168.695 85.7571 168.695 86.3089C168.707 86.8501 168.615 87.3912 168.82 87.8334C169.164 87.8887 169.233 87.6783 169.473 87.6462V87.6453ZM166.339 86.53C166.076 86.8617 166.054 87.5241 166.431 87.7666C166.82 88.0206 167.768 87.722 167.883 87.3582C167.952 87.1594 167.883 86.8055 167.883 86.563C167.883 86.276 167.929 85.9996 167.826 85.7901H167.791C167.277 86.0112 166.659 86.1324 166.339 86.53ZM188.356 105.447C188.882 105.005 189.568 104.662 190.243 104.398C190.632 104.243 190.963 104.176 191.387 104.1C191.66 104.045 192.358 103.757 192.439 104.154C192.496 104.42 192.061 104.839 191.866 105.005C191.569 105.269 191.043 105.579 190.7 105.667C190.402 105.745 189.957 105.745 189.705 105.811C189.133 105.933 188.595 106.274 187.99 106.296C187.726 105.943 188.115 105.646 188.356 105.447Z" fill="black"/>
</svg>
