<svg width="350" height="200" viewBox="0 0 350 200" fill="none" xmlns="http://www.w3.org/2000/svg">
<path d="M86.0551 100C86.0551 102.426 88.1176 104.489 90.625 104.489C91.9596 104.489 93.2941 103.882 94.2243 102.79L94.5882 102.426L98.7941 105.217L98.4301 105.662C96.5699 107.886 93.7794 109.261 90.7463 109.261C85.3676 109.261 81 105.055 81 99.9596C81 94.864 85.2868 90.6581 90.7463 90.6581C93.7794 90.6581 96.7316 91.9926 98.4301 94.3382L98.7941 94.7831L94.5882 97.5735L94.2243 97.2096C93.3346 96.1176 92 95.3493 90.625 95.3493C88.1176 95.511 86.0551 97.5735 86.0551 100ZM135.636 91.2243H140.287V108.776H134.908L127.831 98.9081V108.776H123.18V91.2243H128.033L135.636 101.173C135.636 101.132 135.636 91.2243 135.636 91.2243ZM157.757 91.2243H163.136L157.393 108.776H149.71L143.967 91.2243H149.346L153.268 103.68C153.349 103.842 153.43 103.842 153.43 103.842C153.511 103.842 153.592 103.842 153.592 103.68L157.757 91.2243ZM201.11 108.776H195.812L192.779 102.669C192.699 102.507 192.415 102.507 192.254 102.507H190.11V108.857H185.419V91.3051H194.357C197.39 91.3051 199.897 93.5294 200.18 96.4816C200.342 98.625 199.29 100.607 197.39 101.658L201.11 108.776ZM195.287 96.8456C195.287 96.3199 194.842 95.9559 194.195 95.9559H190.07V97.8162H194.195C194.923 97.7353 195.287 97.4118 195.287 96.8456ZM223.474 91.2243H237.548V95.875H228.165V97.7353H236.577V101.941H228.165V104.085H237.548V108.735H223.474V91.2243ZM219.471 103.478C219.471 107.239 216.357 109.463 212.029 109.463C208.794 109.463 205.68 108.493 203.335 106.43L206.125 103.033C207.985 104.449 210.048 105.176 212.11 105.176C213.445 105.176 214.335 104.732 214.335 103.842V103.761C214.335 103.033 213.607 102.588 211.221 102.062C207.298 101.173 204.346 100.081 204.346 96.3199V96.239C204.346 92.8419 206.934 90.4154 211.221 90.4154C214.254 90.4154 216.599 91.1434 218.662 92.8419L215.871 96.239C214.011 95.1471 212.757 94.7022 211.221 94.7022C209.886 94.7022 209.522 95.2279 209.522 95.875V95.9559C209.522 96.6838 210.25 97.1287 212.757 97.8162C216.842 98.6654 219.471 100.081 219.471 103.478ZM119.621 100C119.621 105.096 115.335 109.301 110.118 109.301C104.82 109.301 100.614 105.096 100.614 100C100.614 94.9044 104.901 90.6985 110.118 90.6985C115.335 90.6985 119.621 94.9044 119.621 100ZM114.526 100C114.526 97.5735 112.544 95.511 110.037 95.511C107.61 95.511 105.548 97.4926 105.548 100C105.548 102.426 107.529 104.489 110.037 104.489C112.544 104.449 114.526 102.507 114.526 100ZM166.816 91.2243H180.89V95.875H171.507V97.7353H179.919V101.941H171.507V104.085H180.89V108.735H166.816V91.2243ZM250.449 93.6507L247.658 97.5735L243.088 96.0368L245.879 99.9596L243.088 103.882L247.658 102.346L250.449 106.268V101.415L255.018 99.8787L250.449 98.3419V93.6507ZM260.357 100L250.246 111H258.86L268.971 100L258.86 89H250.246L260.357 100Z" fill="#221F1F"/>
</svg>
