<svg width="320" height="200" viewBox="0 0 320 200" fill="none" xmlns="http://www.w3.org/2000/svg">
<path fill-rule="evenodd" clip-rule="evenodd" d="M142.783 88.8952C144.446 88.8952 146.171 89.4036 147.588 90.4198L146.51 91.8209C145.355 91.0202 144.385 90.5735 142.922 90.5735C140.381 90.5735 138.394 92.1598 138.394 94.4693C138.394 96.7795 140.381 98.3652 142.922 98.3652C144.461 98.3652 145.478 97.8882 146.71 97.0567L147.788 98.4578C146.34 99.4897 144.523 100.044 142.783 100.044C139.288 100.044 135.991 97.9803 135.991 94.4542C135.991 90.9276 139.288 88.8952 142.783 88.8952ZM155.751 94.4235C157.384 94.4235 158.431 93.7456 158.431 92.5757C158.431 91.4361 157.43 90.8048 155.736 90.8048H152.394V94.4235H155.751ZM150.084 89.0799H155.921C158.631 89.0799 160.833 90.1736 160.833 92.5448C160.833 94.3926 159.478 95.3628 157.645 95.7786L161.172 99.859H158.477L155.274 96.1017H152.394V99.859H150.084V89.0799ZM170.829 86L169.043 87.8943H167.071L168.427 86H170.829ZM163.391 96.7488V89.08H173.155V90.8043H165.701V93.4073H172.539V95.0856H165.701V96.7488C165.701 97.6881 166.148 98.1342 167.056 98.1342H173.37V99.859H166.502C164.531 99.859 163.391 98.7043 163.391 96.7488ZM181.148 98.1344C183.767 98.1344 185.522 96.6716 185.522 94.4849C185.522 92.2831 183.767 90.8045 181.148 90.8045H178.438V98.1344H181.148ZM176.128 89.0802H180.995C185.152 89.0802 187.924 91.2354 187.924 94.4697C187.924 97.7035 185.152 99.8593 180.995 99.8593H176.128V89.0802ZM190.375 99.8588V89.0797H192.685V99.8588H190.375ZM194.979 90.8046V89.0803H205.575V90.8046H201.432V99.8593H199.122V90.8046H194.979ZM144.431 109.534L142.306 105.253L140.181 109.534H144.431ZM145.278 111.213H139.333L138.04 113.815H135.684L141.274 103.036H143.63L149.22 113.815H146.572L145.278 111.213ZM156.691 102.851C158.354 102.851 160.079 103.359 161.496 104.375L160.418 105.776C159.263 104.976 158.293 104.529 156.83 104.529C154.289 104.529 152.302 106.085 152.302 108.395C152.302 110.674 154.073 112.321 156.753 112.321C157.939 112.321 159.032 111.998 159.802 111.49V109.426H156.553V107.779H162.112V112.305C160.819 113.23 158.986 114 156.66 114C152.595 114 149.899 111.598 149.899 108.41C149.899 104.884 153.196 102.851 156.691 102.851ZM170.691 108.379C172.324 108.379 173.371 107.702 173.371 106.531C173.371 105.392 172.37 104.76 170.676 104.76H167.334V108.379H170.691ZM165.024 103.036H170.861C173.571 103.036 175.773 104.129 175.773 106.5C175.773 108.348 174.418 109.318 172.585 109.734L176.112 113.815H173.417L170.214 110.058H167.334V113.815H165.024V103.036ZM178.716 113.815V103.036H181.026V113.815H178.716ZM190.42 102.851C192.083 102.851 193.808 103.359 195.225 104.375L194.147 105.776C192.992 104.976 192.022 104.529 190.559 104.529C188.018 104.529 186.031 106.115 186.031 108.425C186.031 110.735 188.018 112.321 190.559 112.321C192.099 112.321 193.115 111.844 194.347 111.013L195.425 112.414C193.977 113.445 192.16 114 190.42 114C186.925 114 183.628 111.936 183.628 108.41C183.628 104.884 186.925 102.851 190.42 102.851ZM198.661 108.425C198.661 110.597 200.462 112.321 203.08 112.321C205.699 112.321 207.5 110.597 207.5 108.425C207.5 106.254 205.699 104.53 203.08 104.53C200.462 104.53 198.661 106.254 198.661 108.425ZM196.258 108.425C196.258 105.376 199.091 102.851 203.08 102.851C207.069 102.851 209.903 105.376 209.903 108.425C209.903 111.474 207.069 114 203.08 114C199.091 114 196.258 111.474 196.258 108.425ZM212.045 103.036H214.355V112.09H221.208V113.815H212.045V103.036ZM222.657 110.704V103.036H232.421V104.76H224.967V107.363H231.804V109.042H224.967V110.704C224.967 111.643 225.413 112.09 226.322 112.09H232.636V113.815H225.768C223.796 113.815 222.657 112.66 222.657 110.704Z" fill="black"/>
<path fill-rule="evenodd" clip-rule="evenodd" d="M88.3906 113.815V110.65H123.783V113.815H88.3906ZM110.893 93.4206C109.358 96.3806 107.683 100.782 107.087 101.131C104.736 102.903 101.068 103.018 101.062 103.016L108.531 89.0834H113.847L117.502 97.1819L113.282 99.4012L110.893 93.4206ZM114.763 103.288C116.321 102.498 117.786 101.712 119.115 100.967L122.739 108.48H117.872C117.872 108.484 116.936 108.484 116.562 107.642C116.275 106.872 115.153 104.205 114.763 103.288Z" fill="black"/>
<path fill-rule="evenodd" clip-rule="evenodd" d="M117.502 97.1818L113.283 99.4011C109.672 101.249 106.243 102.871 104.396 103.393C99.5239 104.796 93.5895 105.638 91.4579 103.751C89.4528 101.971 94.0827 94.5188 102.839 92.8609C104.259 92.5441 105.088 92.6256 105.088 92.6344C105.088 92.6256 104.488 90.0861 104.021 89.5509C103.368 88.7519 102.728 88.5877 101.774 88.7088C99.8786 88.8218 91.8149 90.9712 88.6334 97.6891C86.8589 101.506 89.2187 105.361 90.7457 106.477C91.455 106.995 96.0343 111.1 106.623 106.95C117.057 102.903 126.403 96.5285 126.41 96.5285V92.264C126.406 92.2588 122.286 94.6201 117.502 97.1818Z" fill="black"/>
<path fill-rule="evenodd" clip-rule="evenodd" d="M126.41 90.6022C126.403 90.601 120.841 93.7963 119.539 94.2819C118.341 94.7554 117.891 94.13 117.748 93.911C117.426 93.4195 116.899 91.7989 116.824 91.5549C116.856 91.5619 117.164 91.6224 117.875 91.4419C118.722 91.227 126.403 86.9329 126.41 86.9352V90.6022Z" fill="black"/>
</svg>
