<svg width="320" height="200" viewBox="0 0 320 200" fill="none" xmlns="http://www.w3.org/2000/svg">
<g clip-path="url(#clip0_2129_7628)">
<path d="M110.3 86.5408H123.159C134.215 86.5408 138.541 93.0301 138.541 99.9C138.541 106.89 132.993 113.119 122.438 113.119H110.32C110.1 113.119 110.02 112.979 110.02 112.859C110.02 112.718 110.16 112.598 110.361 112.598H112.624C113.325 112.598 113.785 112.178 113.785 111.397V88.3033C113.785 87.7225 113.505 87.0816 112.584 87.0816H110.28C110.1 87.0816 110 86.9614 110 86.8212C110 86.701 110.04 86.5408 110.3 86.5408ZM118.332 111.877C118.332 112.458 118.592 112.638 118.973 112.638H122.378C130.77 112.638 133.814 106.209 133.814 99.7598C133.814 93.3105 130.59 87.0615 123.499 87.0615H118.873C118.392 87.0615 118.352 87.4621 118.352 87.6424L118.332 111.877ZM139.823 86.5408C139.623 86.5408 139.442 86.6209 139.442 86.7811C139.442 86.9414 139.543 87.0415 139.723 87.0415H141.986C142.507 87.0415 143.008 87.402 143.008 88.4035V111.417C143.008 111.897 142.647 112.618 142.006 112.618H139.763C139.503 112.618 139.482 112.819 139.482 112.899C139.482 112.979 139.462 113.119 139.763 113.119H150.659C150.819 113.119 151.039 113.099 151.039 112.939C151.039 112.779 150.999 112.618 150.719 112.618H148.616C148.315 112.618 147.494 112.438 147.494 111.517V88.1631C147.494 87.5022 147.915 87.0615 148.676 87.0615H150.739C150.919 87.0615 151.019 86.9614 151.019 86.8212C151.019 86.681 150.919 86.5608 150.679 86.5608H139.823V86.5408ZM156.847 99.8399C156.847 92.4893 160.132 86.5408 166.301 86.5408C172.35 86.5408 175.755 92.4893 175.755 99.8399C175.755 107.191 172.65 113.139 166.301 113.139C160.152 113.159 156.847 107.191 156.847 99.8399ZM166.301 113.7C175.074 113.7 180.602 107.491 180.602 99.86C180.602 92.229 175.134 86 166.301 86C157.488 86 152.001 92.2089 152.001 99.8399C152.001 107.471 157.709 113.7 166.301 113.7ZM208.642 112.959C205.197 113.319 203.294 107.671 201.552 104.987C200.25 103.004 197.486 100.982 194.762 100.581C199.249 100.321 204.276 98.8786 204.276 93.7912C204.276 89.6653 201.732 86.5408 192.399 86.5408H181.643C181.503 86.5408 181.363 86.6209 181.363 86.7811C181.363 86.9414 181.503 87.0415 181.643 87.0415H184.107C184.628 87.0415 185.128 87.402 185.128 88.4035V111.417C185.128 111.897 184.768 112.618 184.127 112.618H181.703C181.503 112.618 181.423 112.779 181.423 112.859C181.423 112.939 181.503 113.119 181.703 113.119H193.12C193.28 113.119 193.42 113.039 193.42 112.879C193.42 112.718 193.32 112.618 193.1 112.618H190.796C190.496 112.618 189.675 112.418 189.675 111.517V100.641H190.856C196.505 100.641 196.925 106.77 199.729 110.275C202.133 113.279 205.277 113.66 207.06 113.66C207.821 113.66 208.342 113.64 208.822 113.52C209.123 113.419 209.183 112.899 208.642 112.959ZM190.816 87.0415H192.479C195.323 87.0415 199.93 88.1631 199.93 93.5308C199.93 98.4579 195.844 100.12 192.058 100.12H189.635V88.1631C189.635 87.4821 190.055 87.0415 190.816 87.0415Z" fill="black"/>
</g>
<defs>
<clipPath id="clip0_2129_7628">
<rect width="99.0427" height="27.6999" fill="white" transform="translate(110 86)"/>
</clipPath>
</defs>
</svg>
