<svg width="320" height="200" viewBox="0 0 320 200" fill="none" xmlns="http://www.w3.org/2000/svg">
<g clip-path="url(#clip0_2129_7643)">
<path d="M166.172 110.385H183.289V108.294H169.106V101.604H179.759V99.4882H169.106V93.3244H183.289V91.2412H166.172V110.385Z" fill="black"/>
<path d="M175.067 88.1469L172.75 90.7503L180.025 88.1469H175.067Z" fill="black"/>
<path d="M212.035 108.294V91.2411H209.359V110.385H226.663V108.294H212.035Z" fill="black"/>
<path d="M194.378 91.2413L184.645 110.385H187.935L190.425 105.43H202.099L204.611 110.385H207.867L198.125 91.2413H194.378ZM191.657 103.03L196.244 93.8866L200.885 103.03H191.657Z" fill="black"/>
<path d="M156.885 102.38C161.27 101.209 161.697 97.9463 161.674 96.7797C161.413 93.3598 159.108 91.2411 154.968 91.2411H142.902V110.385H145.653V102.354H153.508L159.287 110.385H162.754C162.754 110.385 158.595 104.98 156.885 102.38ZM154.592 100.092H145.653V93.507H154.904C157.034 93.507 158.232 94.5013 158.664 95.7644C158.949 96.6303 158.766 97.7669 158.294 98.5407C157.521 99.82 156.052 100.092 154.592 100.092Z" fill="black"/>
<path d="M126.373 87.9998C118.608 87.9998 113.316 93.4742 113.316 100.1C113.316 107.076 119.162 112 126.373 112C133.578 112 139.422 107.146 139.422 100.1C139.422 93.4742 134.064 87.9998 126.373 87.9998ZM126.28 109.623C120.908 109.623 116.482 105.307 116.482 100.107C116.482 94.9135 120.699 90.39 126.488 90.39C132.133 90.39 136.283 94.9135 136.283 100.107C136.283 105.307 131.649 109.623 126.28 109.623Z" fill="black"/>
<path d="M106.387 98.0134H108.371L111.974 91.2411H109.075L106.387 98.0134Z" fill="black"/>
<path d="M96.6847 108.294V91.2413H94.0078V110.385H111.311V108.294H96.6847Z" fill="black"/>
</g>
<defs>
<clipPath id="clip0_2129_7643">
<rect width="132.644" height="24" fill="white" transform="translate(94 88)"/>
</clipPath>
</defs>
</svg>
