<svg width="320" height="200" viewBox="0 0 320 200" fill="none" xmlns="http://www.w3.org/2000/svg">
<path d="M172.687 68.0002C177.3 68.0002 181.914 67.9995 186.527 68.0008C186.53 69.0398 186.522 70.0794 186.532 71.1191C185.36 71.1702 184.162 71.3014 183.082 71.792C181.987 72.2839 181.07 73.1788 180.597 74.2871C174.987 87.4747 169.381 100.664 163.777 113.854C163.68 114.071 163.602 114.295 163.489 114.504C161.483 114.48 159.475 114.501 157.469 114.493C156.583 112.734 155.712 110.967 154.819 109.211C153.795 111.954 152.766 114.694 151.742 117.436C158.362 117.437 164.981 117.436 171.6 117.437C172.812 117.453 174.061 117.402 175.194 116.928C177.079 116.171 178.578 114.709 179.799 113.123C181.273 111.201 182.391 109.037 183.388 106.839C184.505 106.83 185.622 106.842 186.739 106.84C184.621 111.365 182.492 115.885 180.355 120.401C165.102 120.402 149.849 120.401 134.595 120.401C134.967 119.432 135.32 118.454 135.719 117.494C135.743 117.395 135.866 117.42 135.941 117.411C137.845 117.397 139.762 117.323 141.631 116.926C142.603 116.698 143.609 116.394 144.357 115.7C144.753 115.322 144.876 114.771 145.007 114.262C146.809 109.442 148.613 104.622 150.415 99.8017C146.605 91.6838 142.783 83.5705 138.971 75.4533C138.664 74.7434 138.259 74.0402 137.622 73.5779C136.303 72.5901 134.589 72.4649 133.001 72.4016C132.999 71.2382 133.001 70.0754 133 68.912C138.356 68.9099 143.711 68.9106 149.066 68.9113C149.067 70.0747 149.068 71.2382 149.066 72.4016C148.368 72.4461 147.627 72.4346 146.995 72.7798C146.681 72.9279 146.497 73.3006 146.578 73.6398C146.677 74.1949 147.116 74.5913 147.338 75.0926C149.599 79.9638 151.861 84.8356 154.129 89.7047C155.266 86.5266 156.402 83.3491 157.543 80.173C157.711 79.7316 157.77 79.2215 157.579 78.7774C157.429 78.4268 157.089 78.2102 156.753 78.0641C156.1 77.795 155.383 77.7977 154.691 77.7479C155.044 76.7661 155.4 75.7843 155.766 74.808C155.85 74.7534 155.968 74.7952 156.066 74.7817C161.5 74.7851 166.934 74.7817 172.368 74.7837C171.993 75.7702 171.619 76.7567 171.248 77.7445C169.939 77.8051 168.59 77.838 167.363 78.3495C166.8 78.585 166.268 78.945 165.935 79.4658C165.704 79.8473 165.561 80.2733 165.406 80.6891C163.136 86.8812 160.845 93.0652 158.6 99.2667C159.843 102.077 161.139 104.864 162.408 107.663C167.014 96.7864 171.619 85.9082 176.23 75.0334C176.541 74.3793 177.047 73.7824 177.087 73.0301C177.125 72.4413 176.688 71.9333 176.182 71.6917C175.091 71.1884 173.865 71.1635 172.687 71.1211C172.685 70.0808 172.685 69.0405 172.687 68.0002Z" fill="black"/>
<path d="M181.067 126.566C182.521 128.072 183.964 129.588 185.404 131.107C185.402 129.695 185.41 128.282 185.409 126.871C185.658 126.871 185.907 126.869 186.156 126.865C186.157 128.881 186.157 130.897 186.156 132.912C184.701 131.413 183.267 129.895 181.819 128.389C181.821 129.809 181.815 131.23 181.815 132.652C181.565 132.654 181.316 132.653 181.067 132.653C181.067 130.623 181.066 128.595 181.067 126.566Z" fill="black"/>
<path d="M138.736 126.773C140.338 126.527 142.033 127.781 142.176 129.415C142.31 130.35 141.947 131.324 141.263 131.968C140.138 133.069 138.115 133.049 137.022 131.909C136.432 131.337 136.096 130.512 136.131 129.69C136.148 128.258 137.331 126.978 138.736 126.773ZM138.736 127.513C137.804 127.665 137.045 128.484 136.914 129.412C136.736 130.467 137.387 131.601 138.405 131.946C139.296 132.282 140.38 131.965 140.952 131.205C141.692 130.277 141.567 128.78 140.657 128.009C140.145 127.544 139.406 127.391 138.736 127.513Z" fill="black"/>
<path d="M150.294 127.085C151.114 126.468 152.456 126.723 152.929 127.655C152.731 127.766 152.534 127.879 152.336 127.991C151.98 127.434 151.112 127.298 150.634 127.771C150.431 127.919 150.454 128.19 150.475 128.412C150.533 128.703 150.843 128.826 151.071 128.963C151.659 129.272 152.365 129.451 152.779 130.012C153.24 130.638 153.163 131.571 152.661 132.151C152.135 132.787 151.174 132.942 150.44 132.609C149.876 132.33 149.527 131.741 149.414 131.138C149.666 131.078 149.92 131.023 150.173 130.966C150.199 131.517 150.626 132.073 151.207 132.083C151.992 132.169 152.616 131.149 152.159 130.498C151.671 129.834 150.73 129.824 150.169 129.25C149.508 128.71 149.575 127.545 150.294 127.085Z" fill="black"/>
<path d="M177.088 126.769C178.138 126.638 179.222 127.122 179.867 127.953C180.796 129.115 180.648 130.971 179.545 131.971C178.915 132.593 177.989 132.849 177.12 132.757C176.26 132.701 175.456 132.219 174.96 131.522C174.426 130.778 174.287 129.784 174.54 128.91C174.871 127.778 175.925 126.917 177.088 126.769ZM176.96 127.523C175.802 127.72 174.974 128.953 175.178 130.1C175.306 131.203 176.353 132.1 177.459 132.08C178.214 132.092 178.934 131.664 179.342 131.039C179.96 130.142 179.797 128.818 179 128.08C178.479 127.552 177.673 127.374 176.96 127.523Z" fill="black"/>
<path d="M133.609 126.867C133.848 126.865 134.087 126.865 134.326 126.867C134.327 128.575 134.325 130.284 134.327 131.993C134.92 131.994 135.513 131.993 136.107 131.993C136.108 132.213 136.108 132.432 136.107 132.652C135.274 132.653 134.442 132.654 133.609 132.652C133.61 130.724 133.61 128.795 133.609 126.867Z" fill="black"/>
<path d="M142.758 126.871C143.011 126.869 143.264 126.87 143.518 126.871C143.52 128.009 143.515 129.149 143.521 130.287C143.532 130.788 143.594 131.338 143.948 131.724C144.511 132.276 145.617 132.197 146.01 131.482C146.209 131.145 146.267 130.747 146.261 130.362C146.257 129.198 146.257 128.035 146.257 126.871C146.51 126.869 146.763 126.87 147.016 126.871C147.016 128.058 147.019 129.246 147.016 130.434C147.017 130.973 146.923 131.543 146.579 131.976C145.838 133.002 144.121 133.061 143.309 132.091C142.924 131.687 142.765 131.118 142.76 130.57C142.756 129.338 142.759 128.104 142.758 126.871Z" fill="black"/>
<path d="M147.946 126.867C148.195 126.865 148.445 126.865 148.694 126.867C148.694 128.795 148.695 130.724 148.694 132.653C148.445 132.653 148.195 132.654 147.945 132.652C147.947 130.724 147.947 128.795 147.946 126.867Z" fill="black"/>
<path d="M155.445 126.872C155.719 126.864 155.994 126.864 156.269 126.866C156.844 128.272 157.41 129.682 157.974 131.092C158.537 129.687 159.117 128.288 159.667 126.877C159.949 126.854 160.232 126.87 160.514 126.866C159.674 128.912 158.83 130.957 157.982 133C157.119 130.964 156.288 128.915 155.445 126.872Z" fill="black"/>
<path d="M160.841 126.865C161.09 126.868 161.339 126.871 161.588 126.87C161.597 127.992 161.587 129.113 161.596 130.234C161.614 130.767 161.655 131.37 162.061 131.765C162.53 132.166 163.277 132.191 163.778 131.834C164.069 131.627 164.229 131.282 164.293 130.939C164.392 130.348 164.357 129.747 164.363 129.151C164.367 128.391 164.368 127.632 164.367 126.872C164.606 126.869 164.846 126.87 165.087 126.87C165.097 127.924 165.089 128.977 165.091 130.031C165.108 130.685 165.087 131.394 164.69 131.946C163.993 132.95 162.39 133.059 161.509 132.242C161.068 131.835 160.847 131.233 160.843 130.639C160.837 129.381 160.842 128.123 160.841 126.865Z" fill="black"/>
<path d="M166.032 126.871C166.292 126.871 166.551 126.869 166.812 126.866C166.812 128.795 166.811 130.723 166.812 132.652C166.55 132.653 166.289 132.653 166.028 132.652C166.025 130.725 166.034 128.798 166.032 126.871Z" fill="black"/>
<path d="M167.278 126.871C169.611 126.873 171.943 126.867 174.276 126.867C174.275 127.098 174.275 127.329 174.276 127.56C173.829 127.562 173.382 127.56 172.935 127.561C172.933 129.258 172.934 130.955 172.934 132.652C172.674 132.653 172.414 132.653 172.154 132.652C172.152 130.955 172.158 129.258 172.151 127.561C171.235 127.562 170.319 127.56 169.404 127.562C169.402 129.259 169.404 130.955 169.403 132.652C169.164 132.653 168.925 132.653 168.687 132.652C168.686 130.955 168.688 129.259 168.686 127.562C168.217 127.56 167.748 127.562 167.278 127.56C167.277 127.33 167.277 127.1 167.278 126.871Z" fill="black"/>
</svg>
