<svg width="320" height="200" viewBox="0 0 320 200" fill="none" xmlns="http://www.w3.org/2000/svg">
<path fill-rule="evenodd" clip-rule="evenodd" d="M154.012 105.071H167.075C167.174 105.078 167.272 105.041 167.343 104.971C167.413 104.901 167.45 104.803 167.445 104.704V103.121C167.45 103.021 167.413 102.924 167.343 102.854C167.272 102.783 167.174 102.746 167.075 102.753H157.283V96.8644H165.597C165.697 96.8706 165.794 96.8339 165.864 96.7635C165.935 96.6932 165.972 96.596 165.966 96.4965V94.9142C165.972 94.8147 165.935 94.7174 165.865 94.647C165.794 94.5765 165.697 94.5396 165.597 94.5457H157.283V88.9883H166.705C166.805 88.9947 166.902 88.9581 166.973 88.8878C167.043 88.8175 167.08 88.7203 167.075 88.6208V87.0376C167.08 86.9381 167.043 86.8409 166.973 86.7706C166.902 86.7004 166.805 86.6638 166.705 86.67H161.679L163.712 84.9032C163.898 84.756 163.898 84.5718 163.712 84.3883L162.677 83.3944C162.612 83.3075 162.509 83.2563 162.401 83.2563C162.292 83.2563 162.189 83.3075 162.124 83.3944L159.058 86.67H154.012C153.912 86.6638 153.815 86.7003 153.744 86.7706C153.674 86.8409 153.636 86.9381 153.642 87.0376V104.704C153.636 104.803 153.673 104.901 153.744 104.971C153.815 105.041 153.912 105.078 154.012 105.071ZM170.455 105.071H173.356C173.456 105.078 173.553 105.041 173.624 104.971C173.695 104.9 173.732 104.803 173.726 104.704V98.5576H174.65C176.657 98.5576 177.722 99.7794 179.995 102.387C180.717 103.216 181.562 104.184 182.597 105.298C185.551 108.479 188.385 110.295 192.953 110.295C195.632 110.295 197.659 109.474 198.999 108.584C199.204 108.448 199.238 108.345 199.136 108.139L198.999 107.866C198.973 107.785 198.913 107.721 198.835 107.688C198.757 107.656 198.669 107.66 198.594 107.698C197.538 108.04 196.436 108.221 195.326 108.235C191.216 108.235 188.435 106.649 184.662 102.656C184.43 102.412 184.212 102.182 184.008 101.966C181.816 99.654 181.095 98.8922 179.878 98.1851C182.992 97.8869 185.736 95.8826 185.736 92.6692C185.736 89.0622 182.483 86.67 178.012 86.67H170.455C170.356 86.6638 170.258 86.7003 170.188 86.7706C170.117 86.8409 170.08 86.9381 170.085 87.0376V104.704C170.079 104.803 170.117 104.901 170.187 104.971C170.258 105.041 170.356 105.078 170.455 105.071ZM173.726 88.9153H177.91C180.349 88.9153 182.049 90.3505 182.049 92.6319C182.049 94.951 180.386 96.4227 177.91 96.4227H173.726V88.9153ZM187.535 103.551C187.72 103.735 187.979 103.735 188.089 103.477L190.065 98.962H198.534L201.033 104.667C201.181 104.961 201.291 105.071 201.587 105.071H204.822C204.921 105.08 205.015 105.028 205.064 104.941C205.111 104.854 205.103 104.746 205.043 104.667L202.456 98.962H205.615C205.714 98.9684 205.812 98.9318 205.882 98.8616C205.953 98.7913 205.991 98.6942 205.985 98.5947V97.0855C205.991 96.9859 205.953 96.8887 205.882 96.8183C205.812 96.7479 205.715 96.7113 205.615 96.7176H201.437L197.062 87.0751C196.914 86.7804 196.803 86.67 196.508 86.67H193.347C193.051 86.67 192.94 86.7804 192.793 87.0751L186.206 101.564C186.058 101.858 186.058 102.042 186.243 102.226L187.535 103.551ZM194.271 89.3202H194.308L197.55 96.7176H191.044L194.271 89.3202ZM128.72 107.243C130.031 107.243 131.338 107.097 132.617 106.81V111.917C132.611 112.017 132.648 112.114 132.719 112.184C132.79 112.255 132.887 112.291 132.986 112.285H135.888C135.988 112.291 136.085 112.255 136.156 112.184C136.226 112.114 136.263 112.017 136.258 111.917V105.071H140.913C147.527 105.071 151.5 101.318 151.5 95.8706C151.5 91.0502 148.359 87.5577 143.082 86.8181C141.269 81.1707 135.769 77.0641 128.683 77.0641C119.851 77.0641 113.348 83.7259 113.348 92.227C113.348 100.729 119.63 107.243 128.72 107.243ZM140.085 88.9153C140.294 89.957 140.398 91.0172 140.396 92.0798C140.419 94.8269 139.785 97.5397 138.549 99.9928C138.438 100.213 138.438 100.361 138.659 100.508L138.881 100.656C139.066 100.766 139.214 100.729 139.398 100.545C141.985 97.969 143.722 94.8039 143.722 90.9389C143.721 90.4101 143.689 89.882 143.627 89.3569C146.396 90.3379 147.787 92.8673 147.787 95.8706C147.787 99.7356 145.496 102.827 140.913 102.827H136.258V88.9153H140.085ZM128.757 79.2726C133.582 79.2726 137.652 82.07 139.433 86.67H129.57C129.47 86.6638 129.373 86.7004 129.302 86.7706C129.231 86.8409 129.194 86.9381 129.2 87.0376V88.5466C129.194 88.6463 129.231 88.7437 129.302 88.8142C129.372 88.8847 129.47 88.9215 129.57 88.9153H132.617V104.664C131.582 104.909 130.522 105.034 129.459 105.035C122.327 105.035 117.339 99.5877 117.339 91.7122C117.339 84.4982 121.81 79.2726 128.757 79.2726ZM145.752 113.756V109.076H144.558V111.803L142.031 109.076H140.913V113.756H142.106V110.823L144.814 113.756H145.752ZM167.983 113.756H166.789V109.076H167.908L170.435 111.803V109.076H171.629V113.756H170.69L167.983 110.823V113.756ZM151.052 113.756H152.358L150.065 109.076H149.153L146.86 113.756H148.091L148.429 112.999H150.712L151.052 113.756ZM148.852 112.062L149.576 110.462L150.29 112.062H148.852ZM153.738 113.756H154.998V110.031H156.36V109.076H152.375V110.031H153.738V113.756ZM158.794 109.076H157.534V113.756H158.794V109.076ZM165.339 111.416C165.339 109.985 164.328 108.964 162.786 108.964C161.245 108.964 160.224 109.985 160.224 111.416C160.224 112.848 161.245 113.868 162.786 113.868C164.328 113.868 165.339 112.848 165.339 111.416ZM161.424 111.416C161.424 110.593 161.931 109.956 162.786 109.956C163.641 109.956 164.14 110.593 164.14 111.416C164.14 112.231 163.641 112.876 162.786 112.876C161.931 112.876 161.424 112.231 161.424 111.416ZM176.928 113.756H178.234L175.941 109.076H175.03L172.737 113.756H173.968L174.306 112.999H176.59L176.928 113.756ZM174.729 112.062L175.453 110.462L176.167 112.062H174.729ZM182.884 112.802H180.611V109.076H179.352V113.756H182.884V112.802ZM136.488 123.22V116.438H139.321C141.595 116.438 143.161 117.781 143.161 119.829C143.161 121.877 141.595 123.22 139.321 123.22H136.488ZM139.321 122.041C140.792 122.041 141.636 121.131 141.636 119.829C141.636 118.527 140.792 117.619 139.321 117.619H137.905V122.041H139.321ZM146.226 122.027H149.998V123.22H144.81V116.438H149.862V117.632H146.226V119.164H149.454V120.358H146.226V122.027ZM155.31 123.22H156.726V120.942H158.496C160.117 120.942 161.247 120.1 161.247 118.69C161.247 117.293 160.117 116.438 158.496 116.438H155.31V123.22ZM156.726 117.619H158.51C159.286 117.619 159.722 118.025 159.722 118.676C159.722 119.327 159.286 119.761 158.51 119.761H156.726V117.619ZM163.427 121.918H166.872L167.471 123.22H169.01L165.728 116.438H164.666L161.397 123.22H162.827L163.427 121.918ZM165.156 118.188L166.314 120.725H163.984L165.156 118.188ZM176.324 118.69C176.324 117.293 175.193 116.438 173.573 116.438H170.387V123.22H171.802V120.942H173.287L174.798 123.22H176.419L174.757 120.765C175.711 120.453 176.324 119.721 176.324 118.69ZM173.586 119.761H171.802V117.619H173.586C174.363 117.619 174.798 118.025 174.798 118.676C174.798 119.327 174.363 119.761 173.586 119.761ZM178.258 116.438H179.674V123.22H178.258V116.438ZM182.425 121.334C182.956 121.877 183.568 122.148 184.481 122.148C185.271 122.148 185.734 121.918 185.734 121.402C185.734 120.89 185.074 120.711 184.29 120.499C183.143 120.188 181.731 119.805 181.731 118.202C181.731 117.022 182.656 116.275 184.386 116.275C185.388 116.246 186.357 116.64 187.055 117.361L186.13 118.324C185.672 117.794 185.004 117.496 184.304 117.51C183.542 117.51 183.215 117.727 183.215 118.107C183.215 118.62 183.881 118.806 184.671 119.025C185.821 119.345 187.232 119.737 187.232 121.322C187.232 122.569 186.225 123.383 184.414 123.383C183.325 123.383 182.221 123.071 181.513 122.284L182.425 121.334Z" fill="black"/>
</svg>
