<svg width="350" height="200" viewBox="0 0 350 200" fill="none" xmlns="http://www.w3.org/2000/svg">
<g clip-path="url(#clip0_2288_8745)">
<path d="M101.905 91.2506C100.568 88.4861 97.0134 88.3342 94.3703 88.3342H84.1627C84.0412 88.3342 83.9805 88.4557 83.9805 88.5165V111.605C83.9805 111.727 84.0412 111.787 84.1627 111.787H88.5982C88.7197 111.787 88.7805 111.727 88.7805 111.605V104.314C90.5425 104.314 92.6691 104.344 95.3425 104.314C98.0159 104.253 100.872 103.889 102.087 101.185C102.786 99.5747 102.786 97.6912 102.786 95.9595C102.786 94.3494 102.603 92.7089 101.905 91.2506ZM97.9855 97.2051C97.9552 97.9949 97.864 98.9671 97.2564 99.5443C96.5577 100.213 95.2817 100.122 94.4007 100.152H88.5982V92.4962H92.0615C93.3678 92.4962 94.826 92.3747 96.102 92.6177C98.2589 92.9823 98.0159 95.5342 97.9855 97.2051ZM245.206 91.2506C243.869 88.4861 240.315 88.3342 237.672 88.3342H227.464C227.342 88.3342 227.282 88.4557 227.282 88.5165V111.605C227.282 111.727 227.342 111.787 227.464 111.787H231.899C232.021 111.787 232.082 111.727 232.082 111.605V104.314C233.844 104.314 235.97 104.344 238.644 104.314C241.317 104.253 244.234 103.889 245.388 101.185C246.087 99.5747 246.087 97.6912 246.087 95.9595C246.026 94.3494 245.874 92.7089 245.206 91.2506ZM241.226 97.2051C241.196 97.9949 241.105 98.9671 240.497 99.5443C239.798 100.213 238.522 100.122 237.641 100.152H231.839V92.4962H235.302C236.608 92.4962 238.067 92.3747 239.342 92.6177C241.499 92.9823 241.287 95.5342 241.226 97.2051ZM123.444 99.757C124.173 98.238 124.051 96.2937 123.991 94.6532C123.96 93.1949 123.687 91.5544 122.775 90.4C121.894 89.276 120.588 88.7899 119.191 88.5468C116.973 88.1519 114.573 88.3342 112.325 88.3342H105.034C104.912 88.3342 104.851 88.395 104.851 88.5165V111.635C104.851 111.757 104.912 111.818 105.034 111.818H109.499C109.621 111.818 109.682 111.757 109.682 111.635V104.192H116.274C118.492 104.192 119.039 105.894 119.039 107.808V111.635C119.039 111.757 119.099 111.818 119.221 111.818H123.656C123.778 111.818 123.839 111.757 123.839 111.635C123.839 109.843 123.899 108.051 123.808 106.289C123.748 105.165 123.505 104.071 122.775 103.16C122.198 102.461 121.317 102.127 120.436 102.005C121.013 101.823 121.864 101.489 122.046 101.397C122.715 100.972 123.17 100.425 123.444 99.757ZM119.191 97.1443C119.16 98.0253 118.978 98.9975 118.218 99.5139C117.429 100.03 116.274 100 115.363 100H109.499V92.4962C111.991 92.4962 114.573 92.3139 117.034 92.557C117.945 92.6177 118.705 92.9519 119.008 93.8937C119.342 94.8962 119.251 96.081 119.191 97.1443ZM131.707 88.3342H127.272C127.15 88.3342 127.089 88.395 127.089 88.5165V111.635C127.089 111.757 127.15 111.818 127.272 111.818H131.677C131.798 111.818 131.889 111.757 131.889 111.635V88.5468C131.889 88.4253 131.798 88.3342 131.707 88.3342ZM156.922 88.3342H152.517C152.396 88.3342 152.335 88.4557 152.335 88.5165V88.5468C152.456 94.8051 152.578 101.003 152.699 107.291L152.517 106.987C152.153 106.258 151.758 105.529 151.393 104.8C150.269 102.582 149.145 100.395 147.991 98.1772C146.32 94.9266 144.679 91.676 143.008 88.4557C142.978 88.3949 142.887 88.3342 142.856 88.3342H135.535C135.413 88.3342 135.353 88.395 135.353 88.5165V111.635C135.353 111.757 135.413 111.818 135.535 111.818H139.97C140.092 111.818 140.153 111.757 140.153 111.635C140.031 105.377 139.788 92.8304 139.788 92.8L141.064 95.3519C142.188 97.5696 143.312 99.7874 144.467 101.975C146.107 105.225 147.778 108.476 149.418 111.696C149.449 111.757 149.54 111.818 149.57 111.818H156.922C157.044 111.818 157.105 111.757 157.105 111.635V88.5468C157.105 88.4253 157.044 88.3342 156.922 88.3342ZM176.699 88.3342H158.715C158.593 88.3342 158.532 88.395 158.532 88.5165V92.3139C158.532 92.4355 158.593 92.4962 158.715 92.4962H165.277V111.605C165.277 111.727 165.337 111.787 165.459 111.787H169.894C169.925 111.787 169.955 111.787 170.016 111.757C170.046 111.727 170.137 111.696 170.137 111.605V92.4658H176.699C176.821 92.4658 176.882 92.4051 176.882 92.2836V88.4861C176.882 88.4253 176.791 88.3342 176.699 88.3342ZM194.441 107.656H183.14V101.884H193.742C193.864 101.884 193.925 101.823 193.925 101.701V98.0557C193.925 97.9342 193.864 97.8734 193.742 97.8734H183.14V92.4658H194.32C194.441 92.4658 194.502 92.4051 194.502 92.2836V88.4861C194.502 88.3646 194.441 88.3038 194.32 88.3038H178.492C178.37 88.3038 178.31 88.3646 178.31 88.4861V111.605C178.31 111.727 178.37 111.787 178.492 111.787H194.411C194.532 111.787 194.593 111.727 194.593 111.605V107.808C194.654 107.716 194.563 107.656 194.441 107.656ZM224.061 88.3342H216.801C216.74 88.3342 216.649 88.3646 216.618 88.4861C215.008 92.9215 213.459 97.3874 211.849 101.823C211.484 102.856 211.12 103.828 210.755 104.861C210.694 105.013 210.634 105.195 210.573 105.347C209.905 103.554 209.236 101.701 208.598 99.9089L204.436 88.5468C204.406 88.4861 204.375 88.3949 204.254 88.3949H197.145C197.024 88.3949 196.963 88.4557 196.963 88.5772V111.696C196.963 111.818 197.024 111.878 197.145 111.878H201.58C201.702 111.878 201.763 111.818 201.763 111.696C201.641 105.256 201.52 99.5443 201.398 93.1038C201.398 93.1038 201.945 94.5317 202.188 95.2608C203.039 97.4481 203.859 99.6658 204.71 101.853L208.416 111.696C208.446 111.757 208.477 111.848 208.598 111.848H212.578C212.578 111.848 212.73 111.818 212.76 111.696C214.006 108.446 215.16 105.195 216.406 101.975C217.256 99.757 218.077 97.5392 218.927 95.2608C219.231 94.5317 219.474 93.7722 219.778 93.0431C219.808 92.9823 219.808 92.9215 219.839 92.8608C219.717 99.119 219.596 105.316 219.474 111.635C219.474 111.757 219.535 111.818 219.656 111.818H224.092C224.213 111.818 224.274 111.757 224.274 111.635V88.5468C224.244 88.4253 224.153 88.3342 224.061 88.3342ZM263.98 98.9975C262.127 97.9646 259.606 98.0253 257.57 97.8734C256.173 97.8127 254.775 97.8127 253.408 97.4481C252.345 97.2051 252.132 96.3848 252.102 95.4127C252.072 94.562 251.98 93.438 252.649 92.8304C253.439 92.0709 255.079 92.162 256.082 92.162C257.327 92.1317 258.998 91.9494 260.153 92.4962C261.125 92.9823 260.942 94.3798 260.942 95.2912C260.942 95.4127 261.003 95.4734 261.125 95.4734H265.53C265.651 95.4734 265.712 95.4127 265.712 95.2912C265.712 93.681 265.682 92.0405 264.831 90.6127C264.132 89.3975 262.887 88.7595 261.611 88.4557C259.94 88.0608 258.148 88.1215 256.446 88.1215C254.745 88.1215 252.953 88.1215 251.282 88.5468C247.788 89.4279 247.029 92.7392 247.241 95.9899C247.363 97.5089 247.788 99.0886 248.912 100.152C249.854 101.063 251.251 101.397 252.527 101.58C254.745 101.914 257.023 101.762 259.272 102.005C260.335 102.127 261.034 102.582 261.277 103.646C261.489 104.587 261.459 105.954 261.034 106.805C260.608 107.656 259.423 107.777 258.603 107.899C257.206 108.051 255.748 108.02 254.38 107.868C253.439 107.808 252.406 107.565 252.072 106.592C251.829 105.863 251.92 104.982 251.92 104.223C251.92 104.101 251.798 104.041 251.737 104.041H247.302C247.18 104.041 247.12 104.101 247.12 104.223C247.12 107.2 247.484 110.268 250.705 111.392C252.223 111.939 253.986 111.939 255.626 111.939C257.449 111.939 259.272 111.97 261.064 111.727C262.34 111.544 263.616 111.149 264.588 110.238C265.621 109.266 265.986 107.838 266.107 106.471C266.411 104.041 266.502 100.395 263.98 98.9975Z" fill="black"/>
</g>
<defs>
<clipPath id="clip0_2288_8745">
<rect width="182.582" height="24" fill="white" transform="translate(84 88)"/>
</clipPath>
</defs>
</svg>
