<svg width="320" height="200" viewBox="0 0 320 200" fill="none" xmlns="http://www.w3.org/2000/svg">
<g clip-path="url(#clip0_2129_7647)">
<path d="M149.451 117.892H150.478C150.802 117.892 151.039 117.833 151.189 117.715C151.338 117.597 151.413 117.42 151.413 117.183C151.413 117.029 151.376 116.897 151.303 116.787C151.229 116.677 151.14 116.602 151.035 116.561C150.93 116.521 150.742 116.5 150.469 116.5H149.451V117.892ZM148.926 119.934V116.041H150.422C150.775 116.041 151.035 116.066 151.202 116.115C151.431 116.183 151.614 116.307 151.75 116.49C151.887 116.672 151.955 116.896 151.955 117.161C151.955 117.512 151.844 117.798 151.622 118.019C151.399 118.241 151.015 118.351 150.469 118.351H149.451V119.934H148.926Z" fill="black"/>
<path d="M154.471 118.335H155.824L155.411 117.257C155.284 116.926 155.19 116.657 155.131 116.45C155.079 116.699 155.007 116.947 154.913 117.193L154.471 118.335ZM153.332 119.933L154.864 116.041H155.425L157.052 119.933H156.45L155.989 118.754H154.318L153.886 119.933H153.332Z" fill="black"/>
<path d="M159.537 117.759H160.667C160.913 117.759 161.1 117.735 161.228 117.687C161.356 117.639 161.457 117.564 161.532 117.461C161.607 117.358 161.645 117.239 161.645 117.102C161.645 116.906 161.573 116.752 161.43 116.639C161.287 116.527 161.074 116.471 160.792 116.471H159.537V117.759ZM159.012 119.933V116.04H160.772C161.14 116.04 161.412 116.077 161.587 116.149C161.762 116.222 161.905 116.342 162.018 116.511C162.13 116.68 162.186 116.876 162.186 117.099C162.186 117.393 162.091 117.631 161.9 117.813C161.71 117.995 161.433 118.111 161.07 118.161C161.217 118.232 161.33 118.304 161.407 118.377C161.563 118.526 161.701 118.691 161.82 118.874L162.514 119.933H161.853L161.323 119.124C161.118 118.807 160.963 118.594 160.858 118.484C160.754 118.374 160.653 118.3 160.555 118.262C160.457 118.223 160.32 118.204 160.144 118.204H159.537V119.933H159.012Z" fill="black"/>
<path d="M164.668 116.041H165.193V119.934H164.668V116.041Z" fill="black"/>
<path d="M167.484 118.68L167.98 118.637C168.006 118.852 168.066 119.018 168.16 119.138C168.253 119.257 168.387 119.353 168.561 119.426C168.735 119.498 168.931 119.535 169.149 119.535C169.462 119.535 169.705 119.473 169.878 119.351C170.051 119.228 170.137 119.068 170.137 118.872C170.137 118.757 170.106 118.657 170.043 118.572C169.98 118.486 169.885 118.416 169.759 118.361C169.632 118.306 169.358 118.229 168.938 118.129C168.563 118.039 168.297 117.949 168.138 117.859C167.98 117.769 167.856 117.654 167.768 117.516C167.68 117.376 167.636 117.219 167.636 117.044C167.636 116.729 167.763 116.471 168.016 116.272C168.269 116.071 168.611 115.971 169.04 115.971C169.336 115.971 169.594 116.018 169.815 116.112C170.036 116.206 170.208 116.34 170.33 116.515C170.453 116.691 170.518 116.897 170.527 117.134L170.021 117.171C169.995 116.918 169.901 116.731 169.739 116.609C169.577 116.486 169.35 116.425 169.057 116.425C168.759 116.425 168.533 116.479 168.376 116.586C168.22 116.693 168.142 116.832 168.142 117.001C168.142 117.159 168.199 117.281 168.314 117.368C168.428 117.455 168.686 117.542 169.086 117.631C169.478 117.719 169.753 117.794 169.912 117.858C170.154 117.958 170.337 118.088 170.46 118.25C170.584 118.412 170.646 118.605 170.646 118.83C170.646 119.053 170.581 119.255 170.451 119.438C170.321 119.621 170.144 119.76 169.921 119.856C169.697 119.952 169.428 119.999 169.113 119.999C168.622 119.999 168.23 119.881 167.939 119.644C167.647 119.406 167.495 119.085 167.484 118.68Z" fill="black"/>
<path d="M196.394 100.637C194.48 101.001 193.439 102.151 193.439 102.151C193.439 102.151 197.604 100.497 198.898 103.638C200.192 106.779 197.772 110.201 193.945 110.874C192.257 111.043 190.512 109.949 189.386 109.388C188.261 108.827 181.789 106.05 177.342 109.472C178.824 108.28 180.346 107.042 181.727 105.872H185.109V105.386H182.299C184.206 103.751 185.772 102.289 186.46 101.338C183.674 102.544 182.717 103.862 179.79 102.909C179.396 102.292 179.819 102.236 180.1 101.478C180.381 100.721 179.734 99.2063 178.074 100.132C176.807 100.945 177.91 102.748 178.13 103.105C176.357 104.76 170.926 110.117 166.677 110.678C165.045 110.902 165.101 109.64 166.424 107.957C167.261 106.892 170.751 101.877 173.198 98.3433H179.294V97.7944H173.578C174.801 96.0263 175.682 94.7466 175.682 94.7466L172.643 94.8027L170.544 97.7944H167.362V98.3433H170.159L163.947 107.2C163.947 107.2 160.458 110.005 158.488 110.482C156.518 110.959 156.237 109.472 157.137 108.182C158.038 106.892 161.471 101.647 161.471 101.647L158.488 101.703L154.661 107.284C154.661 107.284 151.031 110.341 149.343 110.145C148.358 110.005 148.92 108.21 149.568 106.555C150.215 104.9 152.945 100.188 150.89 97.8599C154.239 97.2709 158.01 95.2795 160.233 91.9698C162.456 88.6601 163.216 83.2748 157.841 80.5541C155.083 79.2359 150.778 80.5822 148.977 81.3675C147.176 82.1529 144.531 82.3773 141.745 81.3395C138.959 80.3017 134.259 79.6566 129.222 84.7053C124.185 89.754 126.38 95.9807 131.22 96.9904C136.06 98.0002 138.687 95.3825 139.597 93.3817H139.221C139.221 93.3817 137.083 96.112 134.081 96.0371C131.079 95.9621 126.99 93.0451 129.616 87.8094C132.242 82.5738 139.372 81.0406 141.848 82.0129C144.324 82.9851 146.313 83.3215 149.84 82.0501C153.367 80.7787 157.419 81.5269 158.582 85.0796C159.745 88.6323 157.494 95.4758 150.365 97.1215C148.752 95.4013 145.3 95.2517 145.3 96.598C145.3 97.9443 148.527 98.1312 149.952 98.0565C150.59 100.375 147.101 104.751 146.5 106.77C145.9 108.79 145.375 111.258 148.564 111.408C150.853 111.52 154.38 108.378 154.38 108.378C154.38 108.378 153.554 110.398 155.093 111.258C156.631 112.118 158.582 111.894 163.46 108.491C163.497 110.734 163.947 112.641 168.337 111.034C172.727 109.426 178.505 103.217 178.618 103.217C178.731 103.217 181.676 104.732 184.377 102.712C183.48 103.49 182.404 104.427 181.306 105.386H178.693V105.872H180.751C177.826 108.43 174.922 110.987 174.922 110.987C174.922 110.987 179.453 108.238 181.901 108.827C185.784 109.668 188.599 112.445 190.962 112.417C193.326 112.389 197.66 111.239 200.08 107.621C202.5 104.003 200.446 99.8233 196.394 100.637Z" fill="black"/>
<path d="M153.789 84.8175H152.917C152.917 84.8175 147.176 87.7906 143.433 92.9796C139.691 98.1685 137.861 103.722 134.541 107.34C131.22 110.959 127.703 112.193 123.819 110.398C119.936 108.602 119.992 103.077 124.045 101.646C127.703 100.665 129.279 103.722 128.688 105.629C130.067 104.367 130.911 102.179 128.322 100.581C125.733 98.9819 118.951 101.45 118.895 106.499C118.839 111.548 126.043 113.174 131.53 110.79C137.017 108.406 140.197 104.143 142.758 99.1783C145.319 94.2137 147.204 90.0345 148.836 88.4358C150.468 86.837 153.789 84.8175 153.789 84.8175Z" fill="black"/>
<path d="M164.069 96.7472C164.851 96.7472 165.485 96.1945 165.485 95.513C165.485 94.8316 164.851 94.2789 164.069 94.2789C163.286 94.2789 162.652 94.8316 162.652 95.513C162.652 96.1945 163.286 96.7472 164.069 96.7472Z" fill="black"/>
</g>
<defs>
<clipPath id="clip0_2129_7647">
<rect width="82.2222" height="40" fill="white" transform="translate(118.891 80)"/>
</clipPath>
</defs>
</svg>
