<svg width="320" height="200" viewBox="0 0 320 200" fill="none" xmlns="http://www.w3.org/2000/svg">
<path d="M151.249 73.0061C150.489 73.0313 149.716 73.1394 148.972 73.3254C146.735 73.8848 144.707 75.1601 143.21 76.9506C141.775 78.6671 140.894 80.7802 140.698 82.9801C140.665 83.3559 140.656 83.562 140.656 83.9994C140.656 84.3758 140.659 84.4889 140.679 84.7723C140.774 86.1808 141.142 87.5558 141.762 88.8198C142.242 89.7982 142.834 90.6629 143.582 91.4733C143.705 91.6066 144.018 91.9208 144.148 92.0418C145.295 93.1076 146.603 93.8973 148.066 94.4047C148.7 94.6242 149.396 94.7922 150.073 94.8891C150.402 94.9362 150.639 94.9591 151.112 94.9888C151.258 94.9978 168.913 95.0028 169.204 94.9933C171.273 94.9289 173.227 94.3027 174.944 93.1546C176.655 92.0116 178.019 90.4053 178.868 88.5331C179.387 87.3889 179.704 86.1579 179.806 84.8927C179.847 84.3775 179.851 83.7653 179.814 83.2293C179.66 80.9292 178.775 78.7327 177.284 76.9506C176.105 75.5392 174.604 74.4494 172.909 73.7728C171.818 73.3366 170.677 73.0851 169.487 73.0168C169.23 73.0022 168.983 73 167.366 73H165.665V73.4228V73.8456H166.696C167.675 73.8456 167.727 73.8462 167.724 73.8552C167.723 73.863 161.85 88.6182 161.668 89.0752L161.624 89.1861L159.122 81.5257C157.746 77.3124 156.619 73.8608 156.617 73.8552C156.613 73.8462 156.674 73.8456 157.714 73.8456H158.815V73.4228V73L155.098 73.0011C153.054 73.0011 151.321 73.0039 151.249 73.0061ZM156.238 84.0526C158.114 89.6649 159.651 94.2613 159.653 94.2669C159.656 94.2764 159.475 94.2764 155.586 94.2747C152.559 94.2731 151.49 94.2714 151.417 94.2663C150.887 94.231 150.59 94.1986 150.196 94.1336C147.768 93.732 145.546 92.4971 143.934 90.6529C142.496 89.0069 141.635 86.975 141.471 84.8423C141.448 84.5477 141.445 84.4575 141.445 84.061C141.445 83.604 141.456 83.3828 141.496 83.0025C141.756 80.531 142.954 78.2281 144.86 76.5333C146.597 74.9893 148.798 74.0551 151.12 73.877C151.466 73.8501 151.58 73.8473 152.24 73.8479L152.826 73.8484L156.238 84.0526ZM168.927 73.8512C169.697 73.8815 170.409 73.9817 171.139 74.1632C173.488 74.7457 175.577 76.12 177.027 78.0348C177.571 78.754 178.019 79.5459 178.351 80.3748C178.737 81.3375 178.966 82.3467 179.036 83.3834C179.065 83.8196 179.061 84.4452 179.028 84.8563C178.955 85.7317 178.786 86.5348 178.504 87.3373C177.888 89.092 176.786 90.6557 175.315 91.8631C174.547 92.4932 173.683 93.018 172.764 93.4128C171.817 93.8189 170.809 94.0871 169.78 94.2064C169.572 94.2305 169.416 94.2434 169.076 94.2663C169.003 94.2714 167.877 94.2731 164.658 94.2747C162.283 94.2759 160.339 94.2753 160.339 94.2731C160.339 94.2714 162.136 89.6773 164.333 84.0649C166.529 78.4521 168.328 73.8563 168.329 73.8524C168.332 73.844 168.712 73.8428 168.927 73.8512Z" fill="black"/>
<path d="M122.696 110.432C122.688 110.462 122.666 110.532 122.649 110.588C122.281 111.794 121.87 113.232 120.87 116.818C119.668 121.129 119.121 123.011 118.57 124.732C118.399 125.266 118.119 126.095 118.086 126.165C118.079 126.179 118.056 126.207 118.036 126.228C117.973 126.29 117.869 126.334 117.727 126.359C117.589 126.383 117.537 126.386 117.135 126.387C116.921 126.388 116.737 126.391 116.727 126.392C116.711 126.395 116.709 126.397 116.712 126.411C116.713 126.419 116.721 126.487 116.729 126.563C116.736 126.639 116.744 126.71 116.746 126.721L116.749 126.742H118.664C119.717 126.742 120.579 126.742 120.579 126.741C120.584 126.715 120.616 126.397 120.614 126.395C120.611 126.392 120.244 126.392 119.705 126.396C119.299 126.398 119.261 126.396 119.141 126.364C119.047 126.339 119.014 126.317 118.964 126.241C118.866 126.092 118.835 125.988 118.835 125.813C118.835 125.657 118.848 125.577 118.941 125.174C119.253 123.821 119.574 122.63 119.882 121.677L119.934 121.514L120.051 121.515C120.115 121.516 121.022 121.525 122.066 121.534C123.11 121.544 123.965 121.552 123.965 121.553C123.966 121.553 124.28 122.639 124.664 123.967C125.049 125.295 125.365 126.384 125.366 126.388C125.368 126.393 125.183 126.395 124.449 126.395H123.53V126.569V126.742H126.252H128.974V126.569V126.395H128.249H127.525L127.474 126.214C127.384 125.899 122.942 110.398 122.939 110.387C122.936 110.379 122.926 110.378 122.825 110.378H122.713L122.696 110.432ZM122.945 117.755C123.467 119.654 123.896 121.216 123.898 121.226L123.902 121.243H121.968H120.035L120.038 121.228C120.043 121.208 121.96 114.326 121.972 114.287L121.981 114.256L121.988 114.278C121.992 114.291 122.423 115.855 122.945 117.755Z" fill="black"/>
<path d="M208.631 110.383C208.598 110.386 208.545 110.392 208.51 110.397C208.477 110.402 208.407 110.41 208.356 110.415C208.117 110.438 207.941 110.472 207.679 110.548C206.537 110.881 205.479 111.684 204.509 112.952C204.394 113.102 204.305 113.225 204.214 113.363C203.423 114.552 202.972 116.038 202.862 117.812C202.829 118.353 202.827 119.014 202.857 119.562C202.945 121.189 203.317 122.537 203.972 123.611C204.03 123.704 204.167 123.915 204.247 124.031C204.912 124.999 205.614 125.725 206.373 126.229C206.621 126.395 206.719 126.449 206.97 126.56C207.285 126.7 207.509 126.778 207.836 126.863C208.231 126.965 208.495 127 208.879 127C209.125 127 209.253 126.992 209.474 126.96C209.708 126.927 209.84 126.898 210.014 126.837C210.068 126.818 210.167 126.784 210.233 126.762C210.299 126.74 210.392 126.707 210.44 126.689C211.506 126.293 212.502 125.46 213.418 124.203C213.938 123.487 214.324 122.649 214.576 121.691C214.774 120.936 214.888 120.104 214.92 119.179C214.928 118.969 214.928 118.415 214.92 118.215C214.855 116.408 214.442 114.878 213.67 113.581C213.185 112.768 212.482 111.96 211.797 111.43C211.504 111.203 211.231 111.029 210.93 110.876C210.37 110.593 209.82 110.438 209.191 110.389C209.091 110.381 208.706 110.377 208.631 110.383ZM209.129 110.677C209.354 110.7 209.565 110.742 209.74 110.799C209.987 110.878 210.244 111.015 210.477 111.191C211.007 111.589 211.498 112.305 211.948 113.332C212.277 114.085 212.491 115.076 212.607 116.381C212.718 117.63 212.725 119.365 212.626 120.688C212.521 122.101 212.3 123.189 211.954 124.001C211.901 124.125 211.768 124.39 211.678 124.555C211.297 125.245 210.903 125.749 210.478 126.09C210.088 126.402 209.651 126.576 209.118 126.631C209.011 126.643 208.657 126.641 208.549 126.629C208.269 126.597 208.005 126.524 207.735 126.402C207.113 126.123 206.545 125.511 206.008 124.544C205.83 124.225 205.72 123.976 205.606 123.64C205.29 122.708 205.102 121.446 205.041 119.848C205.026 119.448 205.022 119.208 205.022 118.644C205.022 117.759 205.043 117.14 205.098 116.454C205.222 114.872 205.492 113.708 205.924 112.889C206.415 111.96 206.948 111.331 207.522 111.001C207.689 110.905 207.832 110.847 208.056 110.784C208.288 110.719 208.472 110.683 208.659 110.669C208.751 110.662 209.027 110.667 209.129 110.677Z" fill="black"/>
<path d="M105.102 110.626C105.102 110.633 105.109 110.71 105.118 110.798C105.127 110.886 105.135 110.961 105.135 110.964C105.135 110.97 105.291 110.971 105.897 110.971C106.618 110.971 106.659 110.972 106.663 110.981C106.665 110.986 107.734 114.587 109.039 118.983L111.411 126.975H111.511H111.611L111.629 126.916C111.656 126.828 112.284 124.788 112.676 123.514C113.969 119.305 114.8 116.71 115.624 114.298C116.025 113.126 116.542 111.675 116.595 111.576C116.692 111.393 116.895 111.249 117.196 111.147C117.452 111.061 117.797 111.003 118.168 110.982C118.231 110.979 118.288 110.975 118.295 110.974L118.308 110.971V110.792V110.613H116.224C114.244 110.613 114.141 110.613 114.141 110.622C114.143 110.66 114.19 111.078 114.193 111.082C114.196 111.084 114.373 111.088 114.588 111.089C114.999 111.093 115.061 111.097 115.198 111.123C115.362 111.155 115.473 111.215 115.591 111.339C115.76 111.515 115.846 111.748 115.836 111.999C115.834 112.042 115.829 112.1 115.824 112.128C115.8 112.266 115.462 113.446 115.129 114.556C114.769 115.758 114.468 116.731 113.617 119.456C112.955 121.576 112.738 122.275 112.499 123.068C112.444 123.252 112.397 123.406 112.395 123.412C112.392 123.419 111.823 121.374 110.669 117.204C109.723 113.784 108.947 110.983 108.947 110.98C108.946 110.976 109.252 110.974 109.85 110.972C110.705 110.971 110.753 110.971 110.753 110.961C110.753 110.956 110.745 110.88 110.736 110.793C110.726 110.705 110.719 110.629 110.719 110.623C110.719 110.613 110.625 110.613 107.91 110.613H105.102V110.626Z" fill="black"/>
<path d="M129.839 110.848V111.083H130.788H131.737V118.756V126.429H130.777H129.816V126.585V126.742H135.479H141.141V126.643C141.141 126.588 141.149 125.421 141.158 124.05C141.168 122.678 141.175 121.555 141.174 121.554C141.171 121.552 140.912 121.587 140.909 121.59C140.908 121.591 140.904 121.756 140.9 121.957C140.894 122.33 140.889 122.458 140.875 122.702C140.781 124.215 140.434 125.124 139.735 125.687C139.24 126.086 138.538 126.315 137.59 126.387C137.332 126.406 137.221 126.409 136.834 126.406C136.106 126.401 135.292 126.405 134.879 126.414C134.659 126.419 134.298 126.425 134.077 126.427L133.675 126.43V118.757V111.083H134.636H135.596V110.848V110.613H132.717H129.839V110.848Z" fill="black"/>
<path d="M155.005 110.812V111.012L155.312 111.009C155.481 111.007 155.906 111.001 156.258 110.996C156.61 110.99 156.899 110.987 156.902 110.99C156.912 111 156.876 118.525 156.848 121.987C156.827 124.691 156.823 124.961 156.803 125.272C156.767 125.845 156.67 126.101 156.439 126.235C156.273 126.332 156.041 126.372 155.549 126.389C155.414 126.394 154.962 126.406 154.921 126.406C154.911 126.406 154.91 126.413 154.91 126.574V126.742H157.01H159.111V126.538V126.333H159.064C158.998 126.333 158.853 126.342 158.601 126.361C158.179 126.393 158.072 126.398 157.937 126.389C157.667 126.373 157.504 126.311 157.374 126.178C157.22 126.02 157.139 125.777 157.111 125.39C157.106 125.324 157.105 124.904 157.108 123.774C157.111 122.345 157.113 121.903 157.128 119.531C157.146 116.606 157.179 112.537 157.188 111.908L157.192 111.672L161.76 119.334C164.271 123.548 166.33 126.997 166.334 126.998C166.34 127.001 166.529 126.989 166.639 126.979L166.677 126.976V125.987C166.677 125.443 166.674 124.504 166.671 123.9C166.647 119.102 166.647 116.047 166.671 114.217C166.684 113.249 166.707 112.247 166.722 112.002C166.761 111.367 166.916 111.115 167.321 111.028C167.467 110.996 167.585 110.99 168.066 110.982C168.286 110.979 168.48 110.975 168.496 110.973L168.525 110.97V110.805C168.525 110.715 168.525 110.64 168.524 110.64C168.522 110.639 164.557 110.613 164.557 110.614C164.556 110.615 164.549 110.695 164.541 110.792C164.532 110.889 164.525 110.983 164.522 111.001L164.519 111.034L164.686 111.03C165.102 111.022 165.505 111.02 165.61 111.026C165.998 111.051 166.172 111.113 166.239 111.253C166.294 111.366 166.333 111.533 166.355 111.747C166.371 111.901 166.376 112.817 166.372 115.138C166.371 116.325 166.367 117.939 166.363 118.725C166.36 119.51 166.357 120.741 166.356 121.459C166.355 122.178 166.353 122.764 166.351 122.761C166.35 122.759 164.714 120.036 162.718 116.708C160.722 113.382 159.084 110.655 159.08 110.648C159.072 110.638 159.041 110.638 157.519 110.629C156.665 110.624 155.75 110.618 155.486 110.616L155.005 110.613V110.812Z" fill="black"/>
<path d="M169.341 110.687C169.341 110.728 169.336 111.788 169.329 113.043C169.323 114.297 169.319 115.325 169.321 115.327C169.322 115.329 169.382 115.323 169.454 115.312C169.526 115.303 169.586 115.295 169.588 115.295C169.59 115.295 169.593 115.275 169.595 115.251C169.596 115.228 169.605 115.13 169.612 115.035C169.62 114.939 169.64 114.666 169.657 114.427C169.704 113.78 169.726 113.535 169.758 113.292C169.841 112.681 169.979 112.286 170.227 111.954C170.414 111.705 170.647 111.535 171.001 111.393C171.477 111.202 172.1 111.096 173.006 111.054C173.179 111.047 174.142 111.044 174.149 111.052C174.153 111.055 174.131 121.683 174.12 125.271L174.116 126.407H173.143H172.169V126.58V126.754H175.095H178.022V126.58V126.407H178.001C177.889 126.405 176.116 126.368 176.115 126.367C176.114 126.365 176.148 111.732 176.151 111.059V111.011H176.245C176.424 111.011 176.774 111.024 177.002 111.039C178.135 111.113 179.092 111.318 179.629 111.603C179.892 111.742 180.055 111.885 180.201 112.106C180.317 112.279 180.407 112.494 180.471 112.751C180.565 113.125 180.606 113.463 180.688 114.55C180.705 114.795 180.727 115.079 180.736 115.181L180.751 115.368H180.908H181.064L181.06 115.176C181.057 114.995 181.001 110.732 181.001 110.651V110.613H175.171H169.341V110.687Z" fill="black"/>
<path d="M182.141 110.848V111.083H182.976H183.81V118.725V126.367L182.918 126.368L182.026 126.37L182.025 126.561L182.023 126.753H184.709H187.394V126.56V126.367H186.577H185.759V118.725V111.083H186.616H187.473V110.848V110.613H184.807H182.141V110.848Z" fill="black"/>
<path d="M188.254 110.629C188.253 110.63 188.251 110.717 188.251 110.822V111.012L188.99 111.009C189.395 111.007 189.822 111.003 189.939 111.001L190.15 110.998V111.409C190.15 113.12 190.115 119.522 190.088 122.735C190.085 123.108 190.08 123.73 190.077 124.119C190.071 124.972 190.064 125.203 190.04 125.449C189.989 125.981 189.859 126.2 189.534 126.303C189.355 126.359 189.127 126.382 188.607 126.395C188.484 126.398 188.332 126.402 188.27 126.404L188.156 126.408V126.575V126.742H190.256H192.357V126.538V126.334H192.31C192.244 126.334 192.1 126.343 191.847 126.362C191.425 126.394 191.318 126.398 191.183 126.39C190.963 126.376 190.808 126.33 190.692 126.243C190.491 126.093 190.387 125.826 190.357 125.381C190.349 125.272 190.353 123.129 190.363 121.413C190.384 117.827 190.41 114.238 190.431 112.271C190.434 111.942 190.437 111.674 190.437 111.674C190.438 111.673 192.494 115.12 195.006 119.334C197.518 123.548 199.576 126.997 199.58 126.998C199.586 127.001 199.775 126.989 199.885 126.979L199.923 126.976V125.948C199.922 125.382 199.919 124.209 199.914 123.34C199.902 121.145 199.897 116.577 199.906 115.494C199.917 113.958 199.938 112.706 199.962 112.142C199.992 111.454 200.123 111.17 200.464 111.058C200.63 111.004 200.852 110.988 201.454 110.988H201.771V110.821V110.653L201.518 110.65C201.379 110.648 200.594 110.643 199.775 110.638C198.955 110.634 198.177 110.629 198.044 110.629L197.803 110.627L197.785 110.831C197.775 110.943 197.767 111.036 197.769 111.037C197.771 111.038 197.949 111.037 198.166 111.033C198.693 111.024 198.937 111.033 199.131 111.069C199.335 111.107 199.436 111.163 199.486 111.264C199.55 111.397 199.591 111.601 199.61 111.884C199.62 112.027 199.62 116.067 199.61 118.675C199.606 119.75 199.602 121.11 199.602 121.697C199.602 122.285 199.599 122.764 199.598 122.762C199.596 122.759 197.961 120.038 195.965 116.714C193.968 113.391 192.331 110.667 192.327 110.661C192.32 110.651 192.236 110.65 190.609 110.641C189.668 110.635 188.754 110.629 188.578 110.628C188.402 110.627 188.256 110.627 188.254 110.629Z" fill="black"/>
<path d="M142.473 110.898V111.133H143.302H144.13V118.775V126.417H143.302H142.473V126.429C142.473 126.435 142.48 126.505 142.489 126.584C142.499 126.662 142.506 126.73 142.506 126.734C142.506 126.741 143.333 126.742 148.045 126.742H153.584V126.6C153.584 126.523 153.589 125.512 153.596 124.355C153.602 123.197 153.607 122.249 153.605 122.248C153.603 122.246 153.241 122.222 153.24 122.224C153.239 122.225 153.235 122.354 153.232 122.511C153.224 122.874 153.215 123.054 153.192 123.32C153.115 124.193 152.934 124.817 152.64 125.214C152.583 125.292 152.458 125.424 152.366 125.503C151.789 126.001 150.901 126.3 149.655 126.417C149.42 126.439 149.165 126.455 148.838 126.469C148.615 126.478 147.524 126.478 147.158 126.469C147.013 126.465 146.722 126.46 146.512 126.458C146.302 126.457 146.13 126.454 146.13 126.454C146.129 126.451 146.092 118.848 146.093 118.847C146.094 118.845 146.404 118.836 146.783 118.825C147.244 118.812 147.512 118.806 147.594 118.808C148.204 118.825 148.835 119.04 149.152 119.339C149.239 119.422 149.311 119.526 149.395 119.688C149.505 119.9 149.571 120.117 149.602 120.376C149.624 120.556 149.627 120.636 149.626 121.063C149.625 121.362 149.627 121.489 149.632 121.525L149.639 121.576L149.836 121.577L150.033 121.578V121.373C150.033 121.259 150.026 119.981 150.017 118.532C150.008 117.082 150 115.826 150 115.738V115.58H149.858H149.715L149.712 115.615C149.71 115.635 149.706 115.708 149.703 115.779C149.658 116.734 149.583 117.229 149.432 117.566C149.355 117.741 149.254 117.865 149.095 117.987C148.802 118.21 148.318 118.396 147.88 118.456C147.777 118.47 147.502 118.487 147.197 118.498C147.023 118.504 146.097 118.523 146.093 118.52C146.091 118.517 146.129 111.178 146.131 111.174C146.134 111.172 149.367 111.212 149.415 111.215C149.43 111.216 149.489 111.22 149.546 111.223C150.308 111.268 150.95 111.457 151.395 111.77C151.585 111.903 151.731 112.046 151.876 112.24C152.023 112.435 152.138 112.616 152.223 112.785C152.416 113.168 152.499 113.522 152.613 114.446C152.628 114.563 152.639 114.66 152.64 114.66C152.642 114.662 152.895 114.697 152.897 114.695C152.899 114.693 152.629 110.674 152.627 110.664C152.626 110.664 150.342 110.663 147.55 110.663H142.473V110.898Z" fill="black"/>
</svg>
