<svg width="320" height="200" viewBox="0 0 320 200" fill="none" xmlns="http://www.w3.org/2000/svg">
<path d="M134.657 123.778V126.378C134.657 126.471 132.405 127.585 130.641 127.585C129.155 127.608 127.739 127.005 126.718 125.96C125.487 124.776 124.791 123.151 124.791 121.433C124.791 118.16 127.275 115.258 130.594 115.165H130.757C131.987 115.165 133.171 115.629 134.077 116.465C134.216 116.558 134.332 116.697 134.378 116.883V118.067H134.286C134.286 118.044 134.286 118.044 134.286 118.021C134.053 117.092 133.45 116.303 132.591 115.862C132.103 115.629 131.546 115.49 131.012 115.444C127.577 115.235 126.718 119.251 126.718 121.41C126.718 123.894 128.412 127.214 130.943 127.214C132.986 127.214 133.937 125.635 134.332 124.567C134.402 124.312 134.494 124.033 134.541 123.778H134.657ZM139.021 127.074V115.421H136.607V115.513C136.7 115.513 137.582 115.676 137.582 116.256V127.074C137.582 127.283 137.419 127.446 137.211 127.446V127.562H139.393V127.446C139.207 127.446 139.045 127.306 139.045 127.097C139.021 127.097 139.021 127.097 139.021 127.074ZM222.849 127.074V115.421H220.435V115.513C220.528 115.513 221.433 115.676 221.433 116.256V127.074C221.433 127.283 221.271 127.446 221.062 127.446V127.562H223.221V127.446C223.035 127.446 222.872 127.306 222.849 127.097C222.826 127.097 222.826 127.097 222.849 127.074ZM100.88 115.56V115.676C101.367 115.676 101.576 115.978 101.437 116.349L98.0243 125.38L94.6582 116.581C94.4028 115.908 94.8439 115.676 95.3778 115.676V115.56H91.1992V115.676C91.9653 115.653 92.685 116.094 92.9635 116.813L97.0725 127.562H97.4904L101.692 116.442C101.878 116.001 102.319 115.699 102.807 115.676V115.56H100.88ZM227.84 127.562C229.535 127.562 230.487 126.401 230.487 125.194C230.487 124.196 229.744 123.569 228.699 123.244L227.469 122.826C226.494 122.524 225.983 122.222 225.983 121.503C225.983 120.69 226.61 120.18 227.678 120.18C228.815 120.18 229.233 121.062 229.558 122.06H229.651V120.667C229.094 120.203 228.421 119.947 227.701 119.947C226.331 119.947 225.287 120.899 225.287 122.153C225.287 123.638 226.262 123.963 226.935 124.196L228.235 124.637C228.792 124.846 229.326 125.101 229.326 125.937C229.396 126.633 228.862 127.26 228.165 127.33C228.096 127.33 228.026 127.33 227.956 127.33C226.262 127.33 225.612 126.03 225.31 124.985H225.217V126.564C225.983 127.167 226.912 127.515 227.84 127.562ZM193.645 126.726C193.831 127.144 194.249 127.422 194.713 127.446V127.562H191.324V127.446C191.463 127.446 192.067 127.306 191.858 126.749L190.442 123.035H186.402L184.94 126.889C184.754 127.353 185.311 127.446 185.427 127.446V127.562H183.802V127.446C184.15 127.469 184.499 127.26 184.661 126.958L188.956 115.49H189.374L193.645 126.703M188.399 117.719L186.611 122.455H190.186L188.399 117.719ZM200.308 119.971C198.892 119.971 198.288 121.201 198.102 121.851H198.079V120.18H196.315V120.272C196.501 120.296 196.64 120.412 196.663 120.597V127.167C196.64 127.353 196.477 127.469 196.315 127.446V127.562H198.474V127.446C198.311 127.469 198.172 127.353 198.126 127.19V123.244C198.126 121.387 199.17 120.296 199.867 120.296C200.238 120.296 200.447 120.551 200.447 121.015V121.805C200.447 122.083 200.633 122.292 201.144 122.292C201.561 122.292 201.817 122.106 201.817 121.805C201.794 120.505 201.353 119.971 200.308 119.971ZM110.003 127.144C109.632 127.422 109.191 127.562 108.749 127.562C107.682 127.562 107.264 127.074 107.101 126.262V126.215V126.308C106.474 127.074 105.523 127.515 104.524 127.539C103.48 127.539 102.69 126.958 102.69 125.844C102.69 123.755 105.499 123.337 107.078 123.383H107.124C107.124 122.803 107.124 122.222 107.124 121.874C107.124 120.806 106.846 120.156 105.732 120.156C104.989 120.156 104.199 120.365 104.199 121.178V121.944C104.176 122.269 103.921 122.501 103.596 122.501H103.549C102.807 122.501 102.83 122.199 102.83 121.781C102.83 120.806 104.037 119.924 105.755 119.924C107.798 119.924 108.541 121.038 108.541 122.222V126.262C108.541 126.889 108.773 127.074 109.121 127.144C109.399 127.214 109.701 127.167 109.957 127.028L110.003 127.144ZM107.008 125.844C107.078 125.658 107.101 125.472 107.124 125.287C107.124 125.078 107.124 124.846 107.124 124.59C107.124 124.567 107.124 124.521 107.124 124.497V123.662C106.033 123.662 104.107 123.871 104.107 125.287C104.037 126.099 104.64 126.796 105.453 126.865H105.639C106.265 126.819 106.799 126.424 106.985 125.821M118.523 127.051V122.199C118.523 120.644 117.501 119.971 116.039 119.971C115.946 119.971 115.83 119.971 115.737 119.971H115.644C115.575 119.971 115.505 119.994 115.435 119.994H115.342C115.273 119.994 115.203 120.017 115.157 120.04C115.133 120.04 115.11 120.04 115.087 120.04C115.017 120.063 114.948 120.087 114.878 120.133H114.832C114.53 120.272 114.251 120.458 114.019 120.667C113.973 120.713 113.903 120.76 113.88 120.83V120.853C113.741 120.992 113.625 121.155 113.532 121.317L113.508 121.34C113.485 121.387 113.462 121.41 113.439 121.456V120.18H111.419V120.272C111.605 120.272 111.744 120.412 111.767 120.597V127.144C111.744 127.33 111.605 127.469 111.419 127.469V127.585H113.555V127.469C113.369 127.446 113.23 127.283 113.207 127.074V123.313C113.207 123.174 113.207 123.058 113.207 122.942C113.207 122.896 113.23 122.849 113.23 122.826C113.23 122.756 113.253 122.663 113.253 122.594C113.253 122.501 113.253 122.524 113.276 122.501C113.485 121.34 114.46 120.505 115.644 120.435H115.691C116.735 120.435 117.014 120.76 117.083 121.828C117.083 122.013 117.107 122.246 117.107 122.431V127.097C117.084 127.306 116.944 127.469 116.735 127.469V127.585H118.894V127.469C118.662 127.422 118.5 127.26 118.523 127.051C118.523 127.074 118.523 127.074 118.523 127.051ZM162.422 115.188C161.447 115.258 160.541 115.769 159.961 116.558C159.543 117.115 159.218 117.788 159.218 119.321V119.738C159.148 120.087 158.777 120.597 158.405 120.597C158.684 120.597 158.986 120.528 159.218 120.388V127.214C159.172 127.376 159.032 127.492 158.87 127.492V127.585H160.982V127.492C160.82 127.492 160.681 127.376 160.657 127.214V120.644H162.282V120.203H160.657V117.881C160.657 116.187 161.423 115.421 162.352 115.421C162.77 115.421 163.281 115.583 163.281 116.187V117.046C163.281 117.324 163.466 117.51 163.954 117.51C164.441 117.51 164.627 117.324 164.627 117.046C164.627 116.047 164.279 115.165 162.445 115.165M179.368 122.501C178.672 122.501 177.79 123.36 177.279 124.056C177.024 124.381 176.536 125.287 176.211 125.751C177.07 126.726 177.999 127.446 178.927 126.772L178.997 126.889C177.999 127.84 176.397 127.817 175.422 126.842C175.422 126.842 175.352 126.772 175.329 126.749C174.656 127.376 173.774 127.701 172.868 127.678C170.222 127.794 169.502 126.099 169.502 125.031C169.502 123.546 170.732 122.872 171.452 122.617L171.707 122.547L171.87 122.501L171.638 122.222C171.22 121.781 170.965 121.201 170.941 120.597C170.918 119.39 171.893 118.392 173.1 118.369H173.24C174.609 118.369 175.422 119.158 175.422 120.342C175.422 120.412 175.422 120.481 175.422 120.528C175.422 120.574 175.422 120.597 175.422 120.644V120.667C175.375 120.806 175.329 120.969 175.259 121.085C175.236 121.131 175.236 121.155 175.213 121.201C175.166 121.271 175.12 121.317 175.05 121.387C174.609 121.828 174.075 122.153 173.472 122.269L174.052 123.012C174.795 123.987 175.352 124.706 176.095 125.565C176.165 125.472 176.211 125.38 176.281 125.287C176.745 124.381 177.024 123.36 177.093 122.338H179.391V122.478M172.845 121.433C173.031 121.642 173.17 121.851 173.332 122.037C174.052 121.735 174.354 121.294 174.447 120.272C174.447 119.46 173.959 118.508 173.1 118.508H172.984C172.265 118.647 171.499 119.762 172.845 121.433ZM175.12 126.703C175.166 126.656 175.213 126.633 175.259 126.564L175.213 126.517C173.449 124.335 172.566 123.244 172.149 122.733C171.986 122.826 171.8 122.942 171.661 123.058C171.429 123.267 171.266 123.522 171.15 123.801C171.081 124.056 171.034 124.335 171.034 124.614C171.127 125.333 171.452 126.006 171.94 126.54C172.636 127.306 173.774 127.492 174.679 126.981C174.702 126.981 174.702 126.958 174.725 126.958L174.841 126.889C174.934 126.819 175.027 126.749 175.12 126.703ZM148.145 125.937C147.704 126.68 146.821 127.562 144.964 127.562C143.223 127.562 141.552 126.053 141.552 123.801C141.552 122.106 142.643 120.481 144.198 120.063C144.454 119.994 144.709 119.947 144.964 119.971H145.243H145.266C145.475 119.971 145.707 120.017 145.916 120.063C147.402 120.342 148.47 121.688 148.4 123.197V123.267H143.177C143.177 123.499 143.223 123.963 143.246 124.265C143.455 125.797 144.523 127.19 145.846 127.19C146.264 127.19 146.659 127.051 147.007 126.819C147.286 126.564 147.495 126.285 147.657 125.937H148.075H148.145ZM143.85 121.108C143.618 121.688 143.479 122.292 143.432 122.919H146.891C146.891 121.758 146.427 120.249 145.15 120.249H144.941C144.454 120.342 144.036 120.667 143.85 121.108ZM156.432 125.96C155.991 126.703 155.109 127.585 153.252 127.585C151.511 127.585 149.839 126.076 149.839 123.824C149.839 122.13 150.93 120.505 152.463 120.087C152.718 120.017 152.973 119.994 153.229 119.994H153.507H153.53C153.739 119.994 153.972 120.04 154.18 120.087C155.666 120.365 156.734 121.712 156.664 123.221V123.29H151.511C151.511 123.522 151.534 123.987 151.58 124.289C151.789 125.821 152.857 127.214 154.204 127.214C154.622 127.214 155.016 127.074 155.364 126.842C155.643 126.61 155.875 126.308 156.014 125.96H156.432ZM152.207 121.108C151.975 121.688 151.836 122.292 151.789 122.919H155.248C155.248 121.758 154.784 120.249 153.484 120.249H153.321C152.834 120.342 152.416 120.667 152.207 121.108ZM218.972 125.914C218.531 126.656 217.672 127.539 215.792 127.539C214.051 127.539 212.403 126.053 212.403 123.778C212.403 122.06 213.494 120.435 215.026 120.017C215.281 119.947 215.513 119.924 215.769 119.901C215.862 119.901 215.954 119.901 216.047 119.901H216.071C216.279 119.901 216.512 119.947 216.721 119.994C218.206 120.272 219.274 121.619 219.205 123.128V123.197H214.074C214.074 123.546 214.097 123.871 214.144 124.196C214.353 125.728 215.421 127.121 216.744 127.121C217.162 127.121 217.556 126.981 217.905 126.749C218.183 126.494 218.392 126.215 218.555 125.89L218.972 125.914ZM214.724 121.062C214.492 121.642 214.353 122.246 214.306 122.872H217.765C217.765 121.712 217.301 120.203 216.001 120.203H215.815C215.351 120.272 214.933 120.597 214.724 121.062ZM209.71 121.178C210.267 121.921 210.545 122.803 210.522 123.731C210.522 125.96 209.013 127.562 207.087 127.562C207.017 127.562 206.947 127.562 206.878 127.562C206.622 127.539 206.367 127.492 206.112 127.399C205.763 127.26 205.485 127.005 205.322 126.703V132.112H202.885V132.019C202.978 132.019 203.86 131.833 203.86 131.276V120.644C203.86 120.505 203.744 120.388 203.581 120.388H203.558V120.296H205.299V121.178C205.903 120.528 206.738 120.18 207.62 120.203C208.456 120.156 209.199 120.528 209.71 121.178ZM206.669 127.167C208.247 127.167 209.037 125.333 209.037 123.662C209.06 122.803 208.804 121.967 208.317 121.294C207.969 120.83 207.388 120.597 206.808 120.644C206.274 120.644 205.299 121.224 205.299 122.06C205.299 122.13 205.299 122.222 205.299 122.292V125.728C205.322 125.867 205.345 126.03 205.392 126.169C205.508 126.587 205.81 126.935 206.204 127.074C206.344 127.121 206.483 127.167 206.622 127.167" fill="black"/>
<path d="M158.347 70.4745C157.212 71.0688 156.153 71.6608 155.974 71.7908C155.612 72.074 154.477 72.6938 151.898 74.0101C150.918 74.4999 149.911 75.0431 149.704 75.2219C149.497 75.3774 148.801 75.7372 148.156 75.9949C147.51 76.2526 146.712 76.6914 146.35 76.9235C145.755 77.3112 143.202 78.653 135.385 82.7016C133.684 83.5791 131.592 84.6888 130.742 85.1531C129.89 85.6429 128.523 86.3649 127.699 86.7526C126.255 87.4745 125.918 87.9644 126.564 88.5076C126.719 88.6376 128.163 89.4106 129.712 90.2092C131.286 91.0078 133.426 92.143 134.485 92.7118C136.857 93.977 139.877 95.472 140.056 95.472C140.133 95.472 140.495 95.7041 140.855 95.9873C141.217 96.2706 141.732 96.5027 141.99 96.5027C142.273 96.5027 142.686 96.7093 142.944 96.967C143.202 97.2247 145.653 98.5665 148.413 99.9594C151.174 101.352 153.753 102.694 154.115 102.977C154.503 103.235 154.941 103.467 155.069 103.467C155.225 103.467 156.023 103.801 156.85 104.215C161.699 106.641 162.112 106.743 163.505 105.916C164.151 105.554 166.033 104.549 167.709 103.671C169.36 102.819 170.857 102.021 170.985 101.916C171.14 101.786 172.12 101.271 173.179 100.73C174.237 100.215 175.166 99.6715 175.242 99.5694C175.319 99.4672 175.964 99.1051 176.661 98.7708C177.383 98.4365 178.595 97.7377 179.396 97.1968C180.194 96.6815 181.021 96.2427 181.253 96.2427C181.485 96.2427 181.717 96.1406 181.819 96.0106C181.896 95.855 182.283 95.5973 182.671 95.3907C183.059 95.1841 184.245 94.5388 185.301 93.9212C186.36 93.3014 187.881 92.4518 188.656 92.0385C189.429 91.6253 190.669 90.9544 191.365 90.5412C192.087 90.128 192.939 89.6637 193.299 89.5081C195.518 88.503 195.75 88.3474 195.75 87.7531C195.75 87.2633 195.416 86.9545 194.074 86.2558C193.146 85.766 191.597 84.9395 190.592 84.3986C189.612 83.8577 186.594 82.2838 183.885 80.8909C181.202 79.498 177.849 77.743 176.457 76.9699C175.089 76.2224 173.903 75.6026 173.852 75.6026C173.801 75.6026 172.329 74.804 170.576 73.8476C168.821 72.8679 166.939 71.9393 166.423 71.7583C165.908 71.5772 165.186 71.2174 164.824 70.9318C164.153 70.3909 161.548 69.4089 160.826 69.4089C160.592 69.4182 159.457 69.9081 158.347 70.4745ZM168.745 73.8801C169.543 74.2933 170.395 74.7065 170.602 74.8342C170.809 74.9642 174.007 76.5892 177.696 78.4464C181.385 80.3291 184.584 82.0075 184.816 82.2118C185.023 82.4184 185.332 82.5739 185.462 82.5739C186.107 82.5739 194.337 87.1913 194.337 87.5535C194.337 87.8622 193.563 88.431 192.015 89.283C189.694 90.5203 188.661 91.0891 186.984 92.0687C186.005 92.663 184.199 93.6682 182.987 94.3136C181.775 94.9589 179.298 96.3773 177.441 97.4615C172.617 100.298 170.734 101.331 166.063 103.755L161.885 105.895L160.13 105.148C159.15 104.76 158.168 104.27 157.964 104.115C157.757 103.934 155.77 102.903 153.579 101.793C151.387 100.684 148.704 99.3163 147.645 98.7499C145.607 97.6402 140.732 95.0866 138.357 93.8493C137.581 93.4616 134.847 92.0432 132.293 90.7269C129.714 89.3851 127.625 88.1478 127.571 87.9156C127.52 87.6835 127.727 87.4513 128.087 87.3492C128.834 87.1426 135.439 83.9181 136.291 83.3238C137.143 82.7829 146.74 77.6989 151.666 75.2242C152.543 74.7854 153.421 74.2956 153.6 74.1401C153.806 73.9845 154.941 73.367 156.153 72.7472C157.365 72.1529 158.656 71.4309 159.043 71.1477C160.541 70.0636 161.441 70.1425 164.487 71.7142C166.01 72.5127 167.918 73.4947 168.745 73.8801Z" fill="black"/>
<path d="M160.696 72.0229C160.594 72.7193 160.156 73.5713 159.51 74.3954C158.375 75.8138 158.298 76.0205 158.865 76.7935C159.148 77.2323 159.253 78.8828 159.304 85.7706L159.355 94.2068L158.633 94.9798C157.936 95.7018 157.936 95.7784 158.324 96.3727C158.89 97.2247 158.89 100.166 158.349 100.63C157.73 101.146 157.084 102.694 157.344 102.952C157.679 103.286 165.186 103.493 165.755 103.184C166.296 102.901 166.375 101.919 165.857 101.919C165.676 101.919 165.212 101.531 164.852 101.067C164.337 100.37 164.207 99.9315 164.207 98.5642C164.207 97.6356 164.309 96.6304 164.464 96.3193C164.671 95.8806 164.62 95.5718 164.181 94.8498C163.666 94.0234 163.615 93.6636 163.691 91.031C163.742 89.4315 163.666 85.5617 163.536 82.4138C163.329 77.2532 163.355 76.7123 163.742 76.5567C164.464 76.2735 164.181 75.4726 162.944 74.3374C161.99 73.4854 161.706 73.0467 161.602 72.197C161.393 70.76 160.903 70.6811 160.696 72.0229ZM162.064 74.2933C162.786 74.7576 162.194 75.2474 161.084 75.1453C159.974 75.0431 159.819 74.8876 160.337 74.3722C160.696 74.0101 161.546 73.9845 162.064 74.2933ZM160.541 77.0024C160.541 77.4157 160.077 77.801 159.844 77.5689C159.638 77.3623 159.974 76.6403 160.283 76.6403C160.411 76.6403 160.541 76.7958 160.541 77.0024ZM162.475 77.1046C162.475 77.5689 160.488 79.9669 160.102 79.9948C159.482 79.9948 159.768 79.0407 160.722 77.8289C161.6 76.6937 162.475 76.3315 162.475 77.1046ZM162.605 79.0662C162.605 79.7627 160.671 82.3163 160.128 82.3163C159.533 82.3163 159.714 81.6454 160.694 80.3546C162.373 78.1887 162.605 78.0076 162.605 79.0662ZM162.707 81.1555C162.783 81.3621 162.783 81.7498 162.681 81.982C162.475 82.5763 160.462 85.1299 160.23 85.1554C159.636 85.1809 160.153 83.5815 161.133 82.2652C162.296 80.6657 162.475 80.5612 162.707 81.1555ZM162.735 84.0457C162.503 85.0254 160.801 87.4769 160.362 87.4769C159.717 87.4769 160.028 86.4972 161.214 84.9233C162.503 83.2193 163.018 82.9106 162.735 84.0457ZM162.76 86.727C162.684 87.1913 162.115 88.0944 161.523 88.7397C160.258 90.1071 160.026 90.2626 160.026 89.6683C160.026 89.153 160.748 87.7346 161.005 87.7346C161.107 87.7346 161.47 87.3213 161.804 86.8315C162.579 85.6963 162.992 85.6708 162.76 86.727ZM162.862 88.9974C162.862 89.5383 160.643 92.3775 160.232 92.3775C159.666 92.3775 160.309 90.908 161.367 89.7194C162.579 88.4055 162.862 88.2499 162.862 88.9974ZM162.786 91.9898C162.656 92.273 162.373 92.6862 162.191 92.8928C161.985 93.0994 161.625 93.5637 161.34 93.898C161.031 94.3112 160.72 94.4645 160.462 94.3623C159.791 94.1046 159.921 93.847 161.365 92.143C162.475 90.8778 162.758 90.6735 162.888 91.0333C162.992 91.2678 162.939 91.7066 162.786 91.9898ZM162.862 93.6403C162.862 94.2068 162.475 94.5434 162.089 94.3112C161.908 94.2091 161.908 93.977 162.089 93.6403C162.449 92.9973 162.862 92.9973 162.862 93.6403ZM161.572 94.9566C161.572 95.0866 161.34 95.2143 161.056 95.2143C160.773 95.2143 160.541 95.0843 160.541 94.9566C160.541 94.8011 160.773 94.6989 161.056 94.6989C161.34 94.6989 161.572 94.8034 161.572 94.9566ZM162.992 94.9566C163.069 95.0866 162.967 95.2143 162.76 95.2143C162.554 95.2143 162.296 95.0843 162.219 94.9566C162.143 94.8011 162.245 94.6989 162.451 94.6989C162.658 94.6989 162.913 94.8034 162.992 94.9566ZM163.457 96.7372C163.559 96.8672 163.638 97.7424 163.587 98.7243L163.51 100.505H161.446H159.383V98.5711V96.6374L160.156 96.4563C161.031 96.2729 163.146 96.454 163.457 96.7372ZM164.281 101.536C164.281 101.691 163.095 101.819 161.391 101.87C158.965 101.921 158.475 101.87 158.475 101.561C158.475 101.278 158.837 101.148 159.842 101.097C161.778 100.995 164.281 101.227 164.281 101.536ZM164.306 102.464C164.383 102.594 163.222 102.696 161.727 102.696C160.153 102.696 158.993 102.594 158.993 102.439C158.993 102.13 164.1 102.155 164.306 102.464Z" fill="black"/>
<path d="M139.198 84.8186C138.578 85.0252 138.864 86.1093 140.463 89.9258C141.675 92.7371 142.244 93.7957 142.683 94.0023C143.456 94.3644 143.741 94.0278 144.746 91.7319C145.16 90.7267 145.933 88.9462 146.448 87.7599C147.3 85.8261 147.351 85.5406 147.014 85.2063C146.344 84.5098 145.545 85.3618 144.588 87.7599C144.124 88.9462 143.609 90.1858 143.479 90.5201C143.091 91.4998 142.652 91.0355 141.803 88.7395C140.565 85.2829 140.05 84.5354 139.198 84.8186ZM140.9 87.992C142.165 91.0099 142.808 92.3773 143.04 92.3773C143.17 92.3773 143.453 91.9385 143.685 91.3976C143.892 90.8823 144.331 89.8492 144.665 89.1528C144.974 88.4308 145.387 87.4767 145.568 87.0124C145.749 86.5481 145.956 86.2138 146.007 86.2904C146.188 86.4459 145.208 89.2317 144.407 90.8823C144.045 91.6042 143.762 92.3517 143.762 92.5328C143.762 92.6884 143.581 92.9716 143.349 93.1526C143.04 93.4359 142.885 93.4359 142.576 93.1271C142.241 92.765 142.009 92.2241 140.512 88.2776C139.507 85.5916 139.818 85.3595 140.9 87.992Z" fill="black"/>
<path d="M171.82 84.9487C171.33 85.3364 168.491 93.1272 168.672 93.5915C168.723 93.7726 169.06 93.9258 169.394 93.9258C170.167 93.9258 170.478 93.5636 170.736 92.4284C170.838 91.9641 171.226 91.2932 171.588 90.9311L172.285 90.2857L171.639 90.3623C171.149 90.4134 170.841 90.75 170.402 91.6531C170.093 92.3495 169.705 92.8904 169.575 92.8904C169.213 92.8904 169.213 92.8904 170.091 90.9566C170.53 90.0025 170.864 89.125 170.864 88.995C170.864 88.3496 171.999 85.8982 172.412 85.666C172.825 85.4594 173.007 85.615 173.677 86.6991C174.116 87.421 174.476 88.1175 174.476 88.2475C174.476 88.3775 174.889 89.3316 175.379 90.3879C176.308 92.3495 176.463 92.8904 176.024 92.8904C175.894 92.8904 175.535 92.2961 175.198 91.5997C174.632 90.3345 174.578 90.3089 173.522 90.3089C172.902 90.3089 172.412 90.4111 172.412 90.5666C172.412 90.6966 172.8 90.8243 173.29 90.8243C174.269 90.8243 174.425 90.9798 174.991 92.5004C175.3 93.3268 175.558 93.559 176.229 93.6867C177.415 93.9188 177.519 93.4801 176.693 91.7529C176.331 90.9798 176.022 90.2834 176.022 90.23C176.022 90.1534 175.609 89.2248 175.119 88.1662C174.629 87.1077 174.216 86.128 174.216 85.9725C174.216 85.6382 172.979 84.6307 172.565 84.6307C172.389 84.6376 172.052 84.7932 171.82 84.9487Z" fill="black"/>
<path d="M149.644 85.5917C148.664 86.2115 148.096 87.7855 148.07 89.9259C148.044 91.3954 148.147 91.9386 148.611 92.6861C149.54 94.1834 151.371 94.5177 152.971 93.4847C153.693 92.9948 153.874 92.505 153.565 91.7296C153.256 90.9032 152.817 90.9032 152.147 91.7807C151.708 92.2961 151.45 92.4261 150.935 92.2961C150.108 92.0895 149.697 91.1354 149.697 89.4059C149.697 88.2707 149.8 87.9364 150.264 87.6253C151.037 87.0589 151.838 87.1099 152.404 87.7275C152.738 88.1151 152.971 88.1662 153.333 87.9596C154.055 87.5719 153.927 86.901 152.971 85.9724C151.993 85.0253 150.779 84.8953 149.644 85.5917ZM152.302 86.186C152.56 86.3415 152.792 86.6248 152.792 86.8314C152.792 87.1401 152.662 87.1401 151.965 86.8569C150.96 86.4437 150.185 86.6503 149.593 87.5278C149.052 88.3009 149.026 91.2677 149.567 92.043C150.057 92.7395 151.606 93.1016 152.147 92.6373C152.379 92.4563 152.636 92.3797 152.741 92.4818C152.998 92.765 152.019 93.4104 151.348 93.4104C151.014 93.4104 150.47 93.3082 150.083 93.1527C148.2 92.4307 148.2 87.1424 150.057 86.2394C150.779 85.8772 151.682 85.8772 152.302 86.186Z" fill="black"/>
<path d="M171.89 87.7854C171.063 89.5915 171.142 89.7981 172.793 89.7981C173.591 89.7981 174.211 89.696 174.211 89.5404C174.211 89.0506 172.92 86.7036 172.637 86.7036C172.509 86.7013 172.15 87.1911 171.89 87.7854ZM173.206 88.3008C173.463 88.765 173.412 88.9206 173.025 89.2038C172.43 89.6426 172.071 89.2804 172.303 88.4052C172.509 87.5788 172.793 87.5532 173.206 88.3008Z" fill="black"/>
</svg>
