<svg width="24" height="24" viewBox="0 0 24 24" fill="none" xmlns="http://www.w3.org/2000/svg">
<rect width="24" height="24" rx="12" fill="#030014"/>
<circle cx="12" cy="12" r="12" fill="#101828"/>
<path fill-rule="evenodd" clip-rule="evenodd" d="M11.4703 6.80292C11.7632 6.51003 12.2381 6.51003 12.531 6.80292L17.1976 11.4696C17.4905 11.7625 17.4905 12.2374 17.1976 12.5302L12.531 17.1969C12.2381 17.4898 11.7632 17.4898 11.4703 17.1969C11.1774 16.904 11.1774 16.4291 11.4703 16.1363L14.8567 12.7499H7.33398C6.91977 12.7499 6.58398 12.4141 6.58398 11.9999C6.58398 11.5857 6.91977 11.2499 7.33398 11.2499H14.8567L11.4703 7.86358C11.1774 7.57069 11.1774 7.09582 11.4703 6.80292Z" fill="white"/>
</svg>
