<svg width="36" height="36" viewBox="0 0 36 36" fill="none" xmlns="http://www.w3.org/2000/svg">
<path fill-rule="evenodd" clip-rule="evenodd" d="M13.6422 10.4868C13.1054 10.1501 12.8369 9.98172 12.6159 10.0016C12.423 10.0189 12.2467 10.1204 12.1318 10.2802C12 10.4635 12 10.7865 12 11.4323V24.5678C12 25.2135 12 25.5365 12.1318 25.7198C12.2467 25.8797 12.423 25.9812 12.6159 25.9984C12.8369 26.0183 13.1054 25.8499 13.6422 25.5132L24.1121 18.9454C24.6103 18.6328 24.8595 18.4765 24.9444 18.2753C25.0185 18.0997 25.0185 17.9004 24.9444 17.7247C24.8595 17.5235 24.6103 17.3672 24.1121 17.0546L13.6422 10.4868Z" fill="white"/>
</svg>
