<svg width="47" height="19" viewBox="0 0 47 19" fill="none" xmlns="http://www.w3.org/2000/svg">
<rect width="47" height="19" rx="9.5" fill="#EAECF0"/>
<path d="M11.25 13.1C9.3 13.1 8.48 12.13 8.38 10.78H9.66C9.75 11.5 10.04 12.1 11.25 12.1C12.04 12.1 12.6 11.66 12.6 11C12.6 10.34 12.27 10.09 11.11 9.9C9.4 9.67 8.59 9.15 8.59 7.81C8.59 6.64 9.59 5.76 11.08 5.76C12.62 5.76 13.54 6.46 13.68 7.83H12.46C12.33 7.08 11.9 6.76 11.08 6.76C10.27 6.76 9.85 7.15 9.85 7.7C9.85 8.28 10.09 8.57 11.33 8.75C13.01 8.98 13.88 9.46 13.88 10.89C13.88 12.13 12.83 13.1 11.25 13.1ZM18.3988 12.03C19.7488 12.03 20.5988 11 20.5988 9.45V9.37C20.5988 7.9 19.7788 6.81 18.3788 6.81C16.9788 6.81 16.1488 7.84 16.1488 9.38V9.46C16.1488 11.02 17.0988 12.03 18.3988 12.03ZM18.3788 13.1C16.1888 13.1 14.7588 11.53 14.7588 9.47V9.39C14.7588 7.3 16.2588 5.75 18.3788 5.75C20.5088 5.75 21.9788 7.26 21.9788 9.36V9.44C21.9788 11.53 20.5488 13.1 18.3788 13.1ZM26.5434 12.03C27.8934 12.03 28.7434 11 28.7434 9.45V9.37C28.7434 7.9 27.9234 6.81 26.5234 6.81C25.1234 6.81 24.2934 7.84 24.2934 9.38V9.46C24.2934 11.02 25.2434 12.03 26.5434 12.03ZM26.5234 13.1C24.3334 13.1 22.9034 11.53 22.9034 9.47V9.39C22.9034 7.3 24.4034 5.75 26.5234 5.75C28.6534 5.75 30.1234 7.26 30.1234 9.36V9.44C30.1234 11.53 28.6934 13.1 26.5234 13.1ZM31.4079 13V5.85H32.9979L36.0079 11.02V5.85H37.2179V13H35.8379L32.6179 7.52V13H31.4079Z" fill="#101828"/>
</svg>
